<svg xmlns="http://www.w3.org/2000/svg" xmlns:xlink="http://www.w3.org/1999/xlink" xmlns:lucid="lucid" width="2326.66" height="1122.67"><g transform="translate(6.666666666666668 9.333)" lucid:page-tab-id="9XacnD2MJwUxl"><path d="M0 0h2640v1760H0z" fill="#fff"/><path d="M13.33 339.17c0-6.9 5.6-12.5 12.5-12.5h108.33c6.9 0 12.5 5.6 12.5 12.5v75c0 6.9-5.6 12.5-12.5 12.5H25.83c-6.9 0-12.5-5.6-12.5-12.5z" stroke="#333" stroke-width="3" fill="#fff"/><use xlink:href="#a" transform="matrix(1,0,0,1,13.333333333333332,334.66666666666663) translate(36.7578125 40.0703125)"/><use xlink:href="#b" transform="matrix(1,0,0,1,13.333333333333332,334.66666666666663) translate(75 40.0703125)"/><use xlink:href="#c" transform="matrix(1,0,0,1,13.333333333333332,334.66666666666663) translate(30.078125 54.875)"/><path d="M80 323.67v-77h139.38" stroke="#000" stroke-width="3" fill="none"/><path d="M81.5 323.63v1.54h-3v-1.54"/><path d="M235.15 246.67l-14.27 4.63v-9.27z" stroke="#000" stroke-width="3" fill="#fff"/><path d="M80 429.67v83.66h139.38" stroke="#000" stroke-width="3" fill="none"/><path d="M81.5 429.7h-3v-1.53h3"/><path d="M235.15 513.33l-14.27 4.64v-9.27z" stroke="#000" stroke-width="3" fill="#fff"/><path d="M149.66 376.67h69.77" stroke="#000" stroke-width="3" fill="none"/><path d="M149.7 375.17v3h-1.54v-3"/><path d="M235.2 376.67l-14.26 4.63v-9.27z" stroke="#000" stroke-width="3" fill="#fff"/><path d="M240 193.33h106.67V300H240z" stroke="#000" stroke-width="2" fill="#fff"/><use xlink:href="#d" transform="matrix(1,0,0,1,240,201.33333333333331) translate(16.14453125 43.5703125)"/><use xlink:href="#e" transform="matrix(1,0,0,1,240,201.33333333333331) translate(68.61328125 43.5703125)"/><use xlink:href="#f" transform="matrix(1,0,0,1,240,201.33333333333331) translate(25.4765625 58.375)"/><path d="M240 326.67h106.67v100H240z" stroke="#000" stroke-width="2" fill="#fff"/><use xlink:href="#g" transform="matrix(1,0,0,1,240,334.66666666666663) translate(21.48046875 32.66796875)"/><use xlink:href="#h" transform="matrix(1,0,0,1,240,334.66666666666663) translate(63.27734375 32.66796875)"/><use xlink:href="#i" transform="matrix(1,0,0,1,240,334.66666666666663) translate(17.921875 47.47265625)"/><use xlink:href="#e" transform="matrix(1,0,0,1,240,334.66666666666663) translate(66.8359375 47.47265625)"/><use xlink:href="#f" transform="matrix(1,0,0,1,240,334.66666666666663) translate(25.4765625 62.27734375)"/><path d="M240 460h106.67v93.33H240z" stroke="#000" stroke-width="2" fill="#fff"/><use xlink:href="#j" transform="matrix(1,0,0,1,240,468) translate(2.359375 22.265625)"/><use xlink:href="#k" transform="matrix(1,0,0,1,240,468) translate(37.9296875 22.265625)"/><use xlink:href="#l" transform="matrix(1,0,0,1,240,468) translate(77.9453125 22.265625)"/><use xlink:href="#i" transform="matrix(1,0,0,1,240,468) translate(8.14453125 37.0703125)"/><use xlink:href="#m" transform="matrix(1,0,0,1,240,468) translate(57.05859375 37.0703125)"/><use xlink:href="#n" transform="matrix(1,0,0,1,240,468) translate(70.40234375 37.0703125)"/><use xlink:href="#o" transform="matrix(1,0,0,1,240,468) translate(18.80859375 51.875)"/><use xlink:href="#p" transform="matrix(1,0,0,1,240,468) translate(36.59765625 51.875)"/><use xlink:href="#q" transform="matrix(1,0,0,1,240,468) translate(27.703125 66.6796875)"/><path d="M315.84 190.83l-.4-184.16H2180.2l-.3 31.7" stroke="red" stroke-width="3" fill="none"/><path d="M317.34 192.33h-3v-1.53h3" fill="red"/><path d="M2179.75 54.15l-4.5-14.3 9.27.07z" stroke="red" stroke-width="3" fill="#fff"/><path d="M2133.33 60h160v133.33h-160z" stroke="#000" stroke-width="2" fill="#fff"/><use xlink:href="#r" transform="matrix(1,0,0,1,2133.333333333333,68) translate(14.1796875 34.86328125)"/><use xlink:href="#s" transform="matrix(1,0,0,1,2133.333333333333,68) translate(36.421875 34.86328125)"/><use xlink:href="#t" transform="matrix(1,0,0,1,2133.333333333333,68) translate(69.3203125 34.86328125)"/><use xlink:href="#u" transform="matrix(1,0,0,1,2133.333333333333,68) translate(101.3359375 34.86328125)"/><use xlink:href="#v" transform="matrix(1,0,0,1,2133.333333333333,68) translate(128.0234375 34.86328125)"/><use xlink:href="#w" transform="matrix(1,0,0,1,2133.333333333333,68) translate(5.29296875 49.66796875)"/><use xlink:href="#x" transform="matrix(1,0,0,1,2133.333333333333,68) translate(43.53515625 49.66796875)"/><use xlink:href="#y" transform="matrix(1,0,0,1,2133.333333333333,68) translate(81.77734375 49.66796875)"/><use xlink:href="#o" transform="matrix(1,0,0,1,2133.333333333333,68) translate(111.12109375 49.66796875)"/><use xlink:href="#z" transform="matrix(1,0,0,1,2133.333333333333,68) translate(128.91015625 49.66796875)"/><use xlink:href="#A" transform="matrix(1,0,0,1,2133.333333333333,68) translate(9.72265625 64.47265625)"/><use xlink:href="#B" transform="matrix(1,0,0,1,2133.333333333333,68) translate(36.41015625 64.47265625)"/><use xlink:href="#C" transform="matrix(1,0,0,1,2133.333333333333,68) translate(67.54296875 64.47265625)"/><use xlink:href="#D" transform="matrix(1,0,0,1,2133.333333333333,68) translate(94.23046875 64.47265625)"/><use xlink:href="#s" transform="matrix(1,0,0,1,2133.333333333333,68) translate(0.8515625 79.27734375)"/><use xlink:href="#E" transform="matrix(1,0,0,1,2133.333333333333,68) translate(33.75 79.27734375)"/><use xlink:href="#o" transform="matrix(1,0,0,1,2133.333333333333,68) translate(72.890625 79.27734375)"/><use xlink:href="#F" transform="matrix(1,0,0,1,2133.333333333333,68) translate(90.6796875 79.27734375)"/><use xlink:href="#G" transform="matrix(1,0,0,1,2133.333333333333,68) translate(138.6953125 79.27734375)"/><use xlink:href="#H" transform="matrix(1,0,0,1,2133.333333333333,68) translate(53.765625 94.08203125)"/><path d="M349.17 376.55l41.9-3.22h67.31" stroke="#38761d" stroke-width="3" fill="none"/><path d="M349.32 378.04l-1.65.13v-3l1.42-.12" fill="#38761d"/><path d="M474.15 373.33l-14.27 4.64v-9.27z" stroke="#38761d" stroke-width="3" fill="#fff"/><path d="M480 320h106.67v106.67H480z" stroke="#000" stroke-width="2" fill="#fff"/><use xlink:href="#a" transform="matrix(1,0,0,1,480,328) translate(20.15234375 36.16796875)"/><use xlink:href="#I" transform="matrix(1,0,0,1,480,328) translate(58.39453125 36.16796875)"/><use xlink:href="#J" transform="matrix(1,0,0,1,480,328) translate(8.5859375 50.97265625)"/><use xlink:href="#m" transform="matrix(1,0,0,1,480,328) translate(68.171875 50.97265625)"/><use xlink:href="#K" transform="matrix(1,0,0,1,480,328) translate(81.515625 50.97265625)"/><use xlink:href="#L" transform="matrix(1,0,0,1,480,328) translate(10.80859375 65.77734375)"/><use xlink:href="#M" transform="matrix(1,0,0,1,480,328) translate(41.94921875 65.77734375)"/><use xlink:href="#N" transform="matrix(1,0,0,1,480,328) translate(67.73828125 65.77734375)"/><path d="M510.84 429.17l.4 58.17-142.95-.32" stroke="#38761d" stroke-width="3" fill="none"/><path d="M512.34 429.2l-3 .02v-1.55h3" fill="#38761d"/><path d="M352.52 486.98l14.28-4.6-.02 9.27z" stroke="#38761d" stroke-width="3" fill="#fff"/><path d="M813.33 293.33h93.33v40h-93.33z" stroke="#000" stroke-width="2" fill="#fff"/><use xlink:href="#O" transform="matrix(1,0,0,1,813.3333333333333,301.3333333333333) translate(27.87890625 17.47265625)"/><path d="M813.33 346.67h93.33v40h-93.33z" stroke="#000" stroke-width="2" fill="#fff"/><use xlink:href="#P" transform="matrix(1,0,0,1,813.3333333333333,354.66666666666663) translate(18.09765625 17.47265625)"/><path d="M860 290.83V139.2l1251.7.16" stroke="#38761d" stroke-width="3" fill="none"/><path d="M861.5 290.8v1.53h-3v-1.54" fill="#38761d"/><path d="M2127.48 139.36L2113.2 144v-9.28z" stroke="#38761d" stroke-width="3" fill="#fff"/><path d="M909.16 366.67h614.17v14.28l595.05.36" stroke="#38761d" stroke-width="3" fill="none"/><path d="M909.2 365.17v3h-1.54v-3" fill="#38761d"/><path d="M2134.15 381.32l-14.27 4.63v-9.28z" stroke="#38761d" stroke-width="3" fill="#fff"/><path d="M2140 286.67h146.67V420H2140z" stroke="#000" stroke-width="2" fill="#fff"/><use xlink:href="#Q" transform="matrix(1,0,0,1,2140,294.66666666666663) translate(3.2265625 42.265625)"/><use xlink:href="#R" transform="matrix(1,0,0,1,2140,294.66666666666663) translate(68.1640625 42.265625)"/><use xlink:href="#S" transform="matrix(1,0,0,1,2140,294.66666666666663) translate(90.40625 42.265625)"/><use xlink:href="#o" transform="matrix(1,0,0,1,2140,294.66666666666663) translate(8.56640625 57.0703125)"/><use xlink:href="#T" transform="matrix(1,0,0,1,2140,294.66666666666663) translate(26.35546875 57.0703125)"/><use xlink:href="#U" transform="matrix(1,0,0,1,2140,294.66666666666663) translate(64.60546875 57.0703125)"/><use xlink:href="#V" transform="matrix(1,0,0,1,2140,294.66666666666663) translate(77.05078125 57.0703125)"/><use xlink:href="#W" transform="matrix(1,0,0,1,2140,294.66666666666663) translate(111.73828125 57.0703125)"/><use xlink:href="#X" transform="matrix(1,0,0,1,2140,294.66666666666663) translate(5.4609375 71.875)"/><use xlink:href="#Y" transform="matrix(1,0,0,1,2140,294.66666666666663) translate(27.703125 71.875)"/><use xlink:href="#u" transform="matrix(1,0,0,1,2140,294.66666666666663) translate(78.3984375 71.875)"/><use xlink:href="#o" transform="matrix(1,0,0,1,2140,294.66666666666663) translate(105.0859375 71.875)"/><use xlink:href="#Z" transform="matrix(1,0,0,1,2140,294.66666666666663) translate(122.875 71.875)"/><use xlink:href="#aa" transform="matrix(1,0,0,1,2140,294.66666666666663) translate(60.609375 86.6796875)"/><path d="M480 533.33h133.33v133.33H480z" stroke="#000" stroke-width="2" fill="#fff"/><use xlink:href="#r" transform="matrix(1,0,0,1,480,541.3333333333333) translate(6.07421875 42.265625)"/><use xlink:href="#ab" transform="matrix(1,0,0,1,480,541.3333333333333) translate(28.31640625 42.265625)"/><use xlink:href="#m" transform="matrix(1,0,0,1,480,541.3333333333333) translate(86.12890625 42.265625)"/><use xlink:href="#n" transform="matrix(1,0,0,1,480,541.3333333333333) translate(99.47265625 42.265625)"/><use xlink:href="#o" transform="matrix(1,0,0,1,480,541.3333333333333) translate(7.84375 57.0703125)"/><use xlink:href="#ac" transform="matrix(1,0,0,1,480,541.3333333333333) translate(25.6328125 57.0703125)"/><use xlink:href="#u" transform="matrix(1,0,0,1,480,541.3333333333333) translate(81.671875 57.0703125)"/><use xlink:href="#v" transform="matrix(1,0,0,1,480,541.3333333333333) translate(108.359375 57.0703125)"/><use xlink:href="#s" transform="matrix(1,0,0,1,480,541.3333333333333) translate(12.75 71.875)"/><use xlink:href="#ad" transform="matrix(1,0,0,1,480,541.3333333333333) translate(45.6484375 71.875)"/><use xlink:href="#ae" transform="matrix(1,0,0,1,480,541.3333333333333) translate(94.5625 71.875)"/><use xlink:href="#af" transform="matrix(1,0,0,1,480,541.3333333333333) translate(112.3515625 71.875)"/><use xlink:href="#ag" transform="matrix(1,0,0,1,480,541.3333333333333) translate(25.640625 86.6796875)"/><use xlink:href="#ah" transform="matrix(1,0,0,1,480,541.3333333333333) translate(62.109375 86.6796875)"/><path d="M293.33 555.83V600h165.05" stroke="#00f" stroke-width="3" fill="none"/><path d="M294.83 555.87h-3v-1.54h3" fill="#00f"/><path d="M474.15 600l-14.27 4.63v-9.27z" stroke="#00f" stroke-width="3" fill="#fff"/><path d="M615.83 571.98l41.95.4h68.27" stroke="#00f" stroke-width="3" fill="none"/><path d="M615.88 570.5l-.03 3-1.52-.03v-3" fill="#00f"/><path d="M741.82 572.4L727.55 577v-9.27z" stroke="#00f" stroke-width="3" fill="#fff"/><path d="M615.83 627.98l41.95-1.3h68.27" stroke="#00f" stroke-width="3" fill="none"/><path d="M615.9 629.48l-1.57.05v-3l1.5-.05" fill="#00f"/><path d="M741.8 626.67l-14.25 4.63v-9.27z" stroke="#00f" stroke-width="3" fill="#fff"/><path d="M746.67 533.33H880v53.33H746.67z" stroke="#000" stroke-width="2" fill="#fff"/><use xlink:href="#ai" transform="matrix(1,0,0,1,746.6666666666666,541.3333333333333) translate(18.51953125 24.47265625)"/><use xlink:href="#aj" transform="matrix(1,0,0,1,746.6666666666666,541.3333333333333) translate(76.33203125 24.47265625)"/><path d="M746.67 600H880v93.33H746.67z" stroke="#000" stroke-width="2" fill="#fff"/><use xlink:href="#ak" transform="matrix(1,0,0,1,746.6666666666666,608) translate(6.078125 37.0703125)"/><use xlink:href="#C" transform="matrix(1,0,0,1,746.6666666666666,608) translate(43.4296875 37.0703125)"/><use xlink:href="#al" transform="matrix(1,0,0,1,746.6666666666666,608) translate(70.1171875 37.0703125)"/><use xlink:href="#o" transform="matrix(1,0,0,1,746.6666666666666,608) translate(0.74609375 51.875)"/><use xlink:href="#ac" transform="matrix(1,0,0,1,746.6666666666666,608) translate(18.53515625 51.875)"/><use xlink:href="#am" transform="matrix(1,0,0,1,746.6666666666666,608) translate(74.57421875 51.875)"/><use xlink:href="#aa" transform="matrix(1,0,0,1,746.6666666666666,608) translate(107.47265625 51.875)"/><path d="M920 720h173.33v93.33H920z" stroke="#000" stroke-width="2" fill="#fff"/><use xlink:href="#an" transform="matrix(1,0,0,1,920,728) translate(14.96484375 22.265625)"/><use xlink:href="#ao" transform="matrix(1,0,0,1,920,728) translate(46.98046875 22.265625)"/><use xlink:href="#ap" transform="matrix(1,0,0,1,920,728) translate(109.23046875 22.265625)"/><use xlink:href="#aq" transform="matrix(1,0,0,1,920,728) translate(0.71875 37.0703125)"/><use xlink:href="#ar" transform="matrix(1,0,0,1,920,728) translate(30.9609375 37.0703125)"/><use xlink:href="#L" transform="matrix(1,0,0,1,920,728) translate(78.1015625 37.0703125)"/><use xlink:href="#as" transform="matrix(1,0,0,1,920,728) translate(109.2421875 37.0703125)"/><use xlink:href="#b" transform="matrix(1,0,0,1,920,728) translate(151.0390625 37.0703125)"/><use xlink:href="#at" transform="matrix(1,0,0,1,920,728) translate(14.06640625 51.875)"/><use xlink:href="#L" transform="matrix(1,0,0,1,920,728) translate(54.97265625 51.875)"/><use xlink:href="#aq" transform="matrix(1,0,0,1,920,728) translate(86.11328125 51.875)"/><use xlink:href="#au" transform="matrix(1,0,0,1,920,728) translate(116.35546875 51.875)"/><use xlink:href="#av" transform="matrix(1,0,0,1,920,728) translate(56.75390625 66.6796875)"/><path d="M882.5 646.67h124.17v51.7" stroke="#00f" stroke-width="3" fill="none"/><path d="M882.54 645.17v3H881v-3" fill="#00f"/><path d="M1006.67 714.15l-4.64-14.27h9.27z" stroke="#00f" stroke-width="3" fill="#fff"/><path d="M1026.67 453.33H1160V560h-133.33z" stroke="#000" stroke-width="2" fill="#fff"/><g><use xlink:href="#aw" transform="matrix(1,0,0,1,1026.6666666666665,461.3333333333333) translate(2.35546875 28.765625)"/><use xlink:href="#ax" transform="matrix(1,0,0,1,1026.6666666666665,461.3333333333333) translate(33.80078125 28.765625)"/><use xlink:href="#ay" transform="matrix(1,0,0,1,1026.6666666666665,461.3333333333333) translate(72.94140625 28.765625)"/><use xlink:href="#u" transform="matrix(1,0,0,1,1026.6666666666665,461.3333333333333) translate(12.99609375 43.5703125)"/><use xlink:href="#aq" transform="matrix(1,0,0,1,1026.6666666666665,461.3333333333333) translate(39.68359375 43.5703125)"/><use xlink:href="#az" transform="matrix(1,0,0,1,1026.6666666666665,461.3333333333333) translate(69.92578125 43.5703125)"/><use xlink:href="#aA" transform="matrix(1,0,0,1,1026.6666666666665,461.3333333333333) translate(20.30078125 58.375)"/><use xlink:href="#o" transform="matrix(1,0,0,1,1026.6666666666665,461.3333333333333) translate(54.99609375 58.375)"/><use xlink:href="#aB" transform="matrix(1,0,0,1,1026.6666666666665,461.3333333333333) translate(72.78515625 58.375)"/><use xlink:href="#aC" transform="matrix(1,0,0,1,1026.6666666666665,461.3333333333333) translate(2.51171875 73.1796875)"/><use xlink:href="#C" transform="matrix(1,0,0,1,1026.6666666666665,461.3333333333333) translate(46.99609375 73.1796875)"/><use xlink:href="#aD" transform="matrix(1,0,0,1,1026.6666666666665,461.3333333333333) translate(73.68359375 73.1796875)"/></g><path d="M841.92 530.83l-.97-24.16h164.1" stroke="#00f" stroke-width="3" fill="none"/><path d="M843.48 532.33h-3l-.06-1.47 3-.12" fill="#00f"/><path d="M1020.8 506.67l-14.25 4.63v-9.27z" stroke="#00f" stroke-width="3" fill="#fff"/><path d="M1226.67 540h106.67v106.67h-106.67z" stroke="#000" stroke-width="2" fill="#fff"/><g><use xlink:href="#aE" transform="matrix(1,0,0,1,1226.6666666666665,548) translate(0.9677734375 26.673828125)"/><use xlink:href="#aF" transform="matrix(1,0,0,1,1226.6666666666665,548) translate(48.0068359375 26.673828125)"/><use xlink:href="#aG" transform="matrix(1,0,0,1,1226.6666666666665,548) translate(5.97314453125 43.3291015625)"/><use xlink:href="#aH" transform="matrix(1,0,0,1,1226.6666666666665,548) translate(70.99462890625 43.3291015625)"/><use xlink:href="#aI" transform="matrix(1,0,0,1,1226.6666666666665,548) translate(7.9814453125 59.984375)"/><use xlink:href="#aJ" transform="matrix(1,0,0,1,1226.6666666666665,548) translate(32.9775390625 59.984375)"/><use xlink:href="#aK" transform="matrix(1,0,0,1,1226.6666666666665,548) translate(52.990234375 59.984375)"/><use xlink:href="#aL" transform="matrix(1,0,0,1,1226.6666666666665,548) translate(13.9755859375 76.6396484375)"/><use xlink:href="#aM" transform="matrix(1,0,0,1,1226.6666666666665,548) translate(64.0205078125 76.6396484375)"/></g><path d="M1400 406.67h120V520h-120z" stroke="#000" stroke-width="2" fill="#fff"/><g><use xlink:href="#an" transform="matrix(1,0,0,1,1400,414.66666666666663) translate(15.08984375 32.265625)"/><use xlink:href="#al" transform="matrix(1,0,0,1,1400,414.66666666666663) translate(47.10546875 32.265625)"/><use xlink:href="#s" transform="matrix(1,0,0,1,1400,414.66666666666663) translate(1.3046875 47.0703125)"/><use xlink:href="#at" transform="matrix(1,0,0,1,1400,414.66666666666663) translate(34.203125 47.0703125)"/><use xlink:href="#aN" transform="matrix(1,0,0,1,1400,414.66666666666663) translate(75.109375 47.0703125)"/><use xlink:href="#e" transform="matrix(1,0,0,1,1400,414.66666666666663) translate(96.453125 47.0703125)"/><use xlink:href="#aO" transform="matrix(1,0,0,1,1400,414.66666666666663) translate(0.859375 61.875)"/><use xlink:href="#L" transform="matrix(1,0,0,1,1400,414.66666666666663) translate(62.203125 61.875)"/><use xlink:href="#aP" transform="matrix(1,0,0,1,1400,414.66666666666663) translate(93.34375 61.875)"/><use xlink:href="#aQ" transform="matrix(1,0,0,1,1400,414.66666666666663) translate(10.1875 76.6796875)"/><use xlink:href="#aR" transform="matrix(1,0,0,1,1400,414.66666666666663) translate(36.875 76.6796875)"/></g><path d="M1226.67 406.67h106.67V500h-106.67z" stroke="#000" stroke-width="2" fill="#fff"/><g><use xlink:href="#aS" transform="matrix(1,0,0,1,1226.6666666666665,414.66666666666663) translate(5.9140625 22.265625)"/><use xlink:href="#x" transform="matrix(1,0,0,1,1226.6666666666665,414.66666666666663) translate(36.1484375 22.265625)"/><use xlink:href="#l" transform="matrix(1,0,0,1,1226.6666666666665,414.66666666666663) translate(74.390625 22.265625)"/><use xlink:href="#aT" transform="matrix(1,0,0,1,1226.6666666666665,414.66666666666663) translate(0.14453125 37.0703125)"/><use xlink:href="#C" transform="matrix(1,0,0,1,1226.6666666666665,414.66666666666663) translate(22.36328125 37.0703125)"/><use xlink:href="#al" transform="matrix(1,0,0,1,1226.6666666666665,414.66666666666663) translate(49.05078125 37.0703125)"/><use xlink:href="#aU" transform="matrix(1,0,0,1,1226.6666666666665,414.66666666666663) translate(12.578125 51.875)"/><use xlink:href="#aV" transform="matrix(1,0,0,1,1226.6666666666665,414.66666666666663) translate(46.375 51.875)"/><use xlink:href="#aW" transform="matrix(1,0,0,1,1226.6666666666665,414.66666666666663) translate(40.6015625 66.6796875)"/></g><path d="M1162.5 484.26l30.83.3V434l11.72-.13" stroke="#00f" stroke-width="3" fill="none"/><path d="M1162.55 482.76l-.03 3-1.52-.02v-3" fill="#00f"/><path d="M1220.8 433.7l-14.2 4.8-.1-9.28z" stroke="#00f" stroke-width="3" fill="#fff"/><path d="M1162.5 529.08l30.83-.32v64.57h11.72" stroke="#00f" stroke-width="3" fill="none"/><path d="M1162.55 530.58H1161v-3h1.52" fill="#00f"/><path d="M1220.8 593.33l-14.25 4.64v-9.27z" stroke="#00f" stroke-width="3" fill="#fff"/><path d="M640 240h106.67v120H640z" stroke="#000" stroke-width="2" fill="#fff"/><g><use xlink:href="#d" transform="matrix(1,0,0,1,640,248) translate(16.14453125 50.0703125)"/><use xlink:href="#e" transform="matrix(1,0,0,1,640,248) translate(68.61328125 50.0703125)"/><use xlink:href="#f" transform="matrix(1,0,0,1,640,248) translate(25.4765625 64.875)"/></g><path d="M749.17 274.7l30.83.45v38.18h11.7" stroke="#38761d" stroke-width="3" fill="none"/><path d="M749.23 273.2l-.04 3-1.53-.02v-3" fill="#38761d"/><path d="M807.48 313.33l-14.27 4.64v-9.27z" stroke="#38761d" stroke-width="3" fill="#fff"/><path d="M749.17 325.3l30.83-.45v41.82h11.7" stroke="#38761d" stroke-width="3" fill="none"/><path d="M749.23 326.8l-1.56.02v-3l1.52-.02" fill="#38761d"/><path d="M807.48 366.67l-14.27 4.63v-9.27z" stroke="#38761d" stroke-width="3" fill="#fff"/><path d="M589.17 373.33h24.16v-98.18l5.05-.1" stroke="#38761d" stroke-width="3" fill="none"/><path d="M589.2 374.83h-1.53v-3h1.54" fill="#38761d"/><path d="M634.15 274.77l-14.18 4.9-.17-9.28z" stroke="#38761d" stroke-width="3" fill="#fff"/><path d="M1460 404.17V80H693.33v138.38" stroke="#00f" stroke-width="3" fill="none"/><path d="M1461.5 405.67h-3v-1.54h3" fill="#00f"/><path d="M693.33 234.15l-4.63-14.27h9.27z" stroke="#00f" stroke-width="3" fill="#fff"/><path d="M1335.84 453.33h30.83v-13.47l11.7-.14" stroke="#00f" stroke-width="3" fill="none"/><path d="M1335.88 451.83v3h-1.54v-3" fill="#00f"/><path d="M1394.15 439.53l-14.2 4.8-.12-9.26z" stroke="#00f" stroke-width="3" fill="#fff"/><path d="M1453.33 560h160v80h-160z" stroke="#000" stroke-width="2" fill="#fff"/><g><use xlink:href="#aX" transform="matrix(1,0,0,1,1453.3333333333333,568) translate(8.8515625 30.0703125)"/><use xlink:href="#aY" transform="matrix(1,0,0,1,1453.3333333333333,568) translate(45.3125 30.0703125)"/><use xlink:href="#L" transform="matrix(1,0,0,1,1453.3333333333333,568) translate(72 30.0703125)"/><use xlink:href="#aZ" transform="matrix(1,0,0,1,1453.3333333333333,568) translate(103.140625 30.0703125)"/><use xlink:href="#ba" transform="matrix(1,0,0,1,1453.3333333333333,568) translate(136.0390625 30.0703125)"/><use xlink:href="#bb" transform="matrix(1,0,0,1,1453.3333333333333,568) translate(12.84765625 44.875)"/><use xlink:href="#bc" transform="matrix(1,0,0,1,1453.3333333333333,568) translate(83.11328125 44.875)"/><use xlink:href="#aW" transform="matrix(1,0,0,1,1453.3333333333333,568) translate(121.35546875 44.875)"/></g><path d="M1453.33 813.33h160v80h-160z" stroke="#000" stroke-width="2" fill="#fff"/><g><use xlink:href="#aX" transform="matrix(1,0,0,1,1453.3333333333333,821.3333333333333) translate(8.8515625 30.0703125)"/><use xlink:href="#aY" transform="matrix(1,0,0,1,1453.3333333333333,821.3333333333333) translate(45.3125 30.0703125)"/><use xlink:href="#L" transform="matrix(1,0,0,1,1453.3333333333333,821.3333333333333) translate(72 30.0703125)"/><use xlink:href="#aZ" transform="matrix(1,0,0,1,1453.3333333333333,821.3333333333333) translate(103.140625 30.0703125)"/><use xlink:href="#ba" transform="matrix(1,0,0,1,1453.3333333333333,821.3333333333333) translate(136.0390625 30.0703125)"/><use xlink:href="#bb" transform="matrix(1,0,0,1,1453.3333333333333,821.3333333333333) translate(12.84765625 44.875)"/><use xlink:href="#bc" transform="matrix(1,0,0,1,1453.3333333333333,821.3333333333333) translate(83.11328125 44.875)"/><use xlink:href="#aW" transform="matrix(1,0,0,1,1453.3333333333333,821.3333333333333) translate(121.35546875 44.875)"/></g><path d="M1453.33 960h160v80h-160z" stroke="#000" stroke-width="2" fill="#fff"/><g><use xlink:href="#bd" transform="matrix(1,0,0,1,1453.3333333333333,968) translate(8.40625 30.0703125)"/><use xlink:href="#be" transform="matrix(1,0,0,1,1453.3333333333333,968) translate(50.21875 30.0703125)"/><use xlink:href="#bf" transform="matrix(1,0,0,1,1453.3333333333333,968) translate(106.2421875 30.0703125)"/><use xlink:href="#aP" transform="matrix(1,0,0,1,1453.3333333333333,968) translate(125.796875 30.0703125)"/><use xlink:href="#bg" transform="matrix(1,0,0,1,1453.3333333333333,968) translate(49.75390625 44.875)"/><use xlink:href="#bh" transform="matrix(1,0,0,1,1453.3333333333333,968) translate(79.99609375 44.875)"/></g><path d="M1453.33 693.33h160v80h-160z" stroke="#000" stroke-width="2" fill="#fff"/><g><use xlink:href="#bd" transform="matrix(1,0,0,1,1453.3333333333333,701.3333333333333) translate(8.40625 30.0703125)"/><use xlink:href="#be" transform="matrix(1,0,0,1,1453.3333333333333,701.3333333333333) translate(50.21875 30.0703125)"/><use xlink:href="#bf" transform="matrix(1,0,0,1,1453.3333333333333,701.3333333333333) translate(106.2421875 30.0703125)"/><use xlink:href="#aP" transform="matrix(1,0,0,1,1453.3333333333333,701.3333333333333) translate(125.796875 30.0703125)"/><use xlink:href="#bg" transform="matrix(1,0,0,1,1453.3333333333333,701.3333333333333) translate(49.75390625 44.875)"/><use xlink:href="#bh" transform="matrix(1,0,0,1,1453.3333333333333,701.3333333333333) translate(79.99609375 44.875)"/></g><path d="M1335.84 570.84l57.5.4V600h38.37" stroke="#00f" stroke-width="3" fill="none"/><path d="M1335.9 569.34l-.04 3h-1.52v-3" fill="#00f"/><path d="M1447.48 600l-14.27 4.64v-9.28z" stroke="#00f" stroke-width="3" fill="#fff"/><path d="M1280 649.17v84.16h151.7" stroke="#00f" stroke-width="3" fill="none"/><path d="M1281.5 649.2h-3v-1.53h3" fill="#00f"/><path d="M1447.48 733.33l-14.27 4.64v-9.27z" stroke="#00f" stroke-width="3" fill="#fff"/><path d="M1653.33 426.67h160V520h-160z" stroke="#000" stroke-width="2" fill="#fff"/><g><use xlink:href="#an" transform="matrix(1,0,0,1,1653.3333333333333,434.66666666666663) translate(10.63671875 29.66796875)"/><use xlink:href="#bi" transform="matrix(1,0,0,1,1653.3333333333333,434.66666666666663) translate(42.65234375 29.66796875)"/><use xlink:href="#bj" transform="matrix(1,0,0,1,1653.3333333333333,434.66666666666663) translate(109.32421875 29.66796875)"/><use xlink:href="#aq" transform="matrix(1,0,0,1,1653.3333333333333,434.66666666666663) translate(12.83984375 44.47265625)"/><use xlink:href="#L" transform="matrix(1,0,0,1,1653.3333333333333,434.66666666666663) translate(43.08203125 44.47265625)"/><use xlink:href="#bk" transform="matrix(1,0,0,1,1653.3333333333333,434.66666666666663) translate(74.22265625 44.47265625)"/><use xlink:href="#aW" transform="matrix(1,0,0,1,1653.3333333333333,434.66666666666663) translate(67.1015625 59.27734375)"/></g><path d="M1733.33 424.17V200H715.43l.17 18.38" stroke="#00f" stroke-width="3" fill="none"/><path d="M1734.83 425.67h-3v-1.54h3" fill="#00f"/><path d="M715.75 234.15l-4.77-14.23 9.27-.08z" stroke="#00f" stroke-width="3" fill="#fff"/><path d="M1615.83 600h117.5v-58.38" stroke="#00f" stroke-width="3" fill="none"/><path d="M1615.87 601.5h-1.54v-3h1.54" fill="#00f"/><path d="M1733.33 525.85l4.64 14.27h-9.27z" stroke="#00f" stroke-width="3" fill="#fff"/><path d="M2126.67 560H2300v186.67h-173.33z" stroke="#000" stroke-width="2" fill="#fff"/><g><use xlink:href="#bl" transform="matrix(1,0,0,1,2126.6666666666665,568) translate(14.5078125 39.15625)"/><use xlink:href="#bm" transform="matrix(1,0,0,1,2126.6666666666665,568) translate(39.40625 39.15625)"/><use xlink:href="#bn" transform="matrix(1,0,0,1,2126.6666666666665,568) translate(83.890625 39.15625)"/><use xlink:href="#bo" transform="matrix(1,0,0,1,2126.6666666666665,568) translate(118.5859375 39.15625)"/><use xlink:href="#L" transform="matrix(1,0,0,1,2126.6666666666665,568) translate(3.3828125 53.9609375)"/><use xlink:href="#aQ" transform="matrix(1,0,0,1,2126.6666666666665,568) translate(34.5234375 53.9609375)"/><use xlink:href="#x" transform="matrix(1,0,0,1,2126.6666666666665,568) translate(61.2109375 53.9609375)"/><use xlink:href="#bp" transform="matrix(1,0,0,1,2126.6666666666665,568) translate(99.453125 53.9609375)"/><use xlink:href="#l" transform="matrix(1,0,0,1,2126.6666666666665,568) translate(143.921875 53.9609375)"/><use xlink:href="#C" transform="matrix(1,0,0,1,2126.6666666666665,568) translate(9.1875 68.765625)"/><use xlink:href="#bq" transform="matrix(1,0,0,1,2126.6666666666665,568) translate(35.875 68.765625)"/><use xlink:href="#br" transform="matrix(1,0,0,1,2126.6666666666665,568) translate(90.984375 68.765625)"/><use xlink:href="#C" transform="matrix(1,0,0,1,2126.6666666666665,568) translate(16.75 83.5703125)"/><use xlink:href="#bi" transform="matrix(1,0,0,1,2126.6666666666665,568) translate(43.4375 83.5703125)"/><use xlink:href="#u" transform="matrix(1,0,0,1,2126.6666666666665,568) translate(110.109375 83.5703125)"/><use xlink:href="#bs" transform="matrix(1,0,0,1,2126.6666666666665,568) translate(136.796875 83.5703125)"/><use xlink:href="#bt" transform="matrix(1,0,0,1,2126.6666666666665,568) translate(8.72265625 98.375)"/><use xlink:href="#bu" transform="matrix(1,0,0,1,2126.6666666666665,568) translate(53.19140625 98.375)"/><use xlink:href="#aC" transform="matrix(1,0,0,1,2126.6666666666665,568) translate(98.55078125 98.375)"/><use xlink:href="#e" transform="matrix(1,0,0,1,2126.6666666666665,568) translate(143.03515625 98.375)"/><use xlink:href="#ao" transform="matrix(1,0,0,1,2126.6666666666665,568) translate(14.953125 113.1796875)"/><use xlink:href="#aU" transform="matrix(1,0,0,1,2126.6666666666665,568) translate(77.203125 113.1796875)"/><use xlink:href="#aV" transform="matrix(1,0,0,1,2126.6666666666665,568) translate(111 113.1796875)"/><use xlink:href="#bv" transform="matrix(1,0,0,1,2126.6666666666665,568) translate(10.0625 127.984375)"/><use xlink:href="#L" transform="matrix(1,0,0,1,2126.6666666666665,568) translate(40.2890625 127.984375)"/><use xlink:href="#R" transform="matrix(1,0,0,1,2126.6666666666665,568) translate(71.4296875 127.984375)"/><use xlink:href="#bw" transform="matrix(1,0,0,1,2126.6666666666665,568) translate(93.671875 127.984375)"/><use xlink:href="#bx" transform="matrix(1,0,0,1,2126.6666666666665,568) translate(138.15625 127.984375)"/><use xlink:href="#by" transform="matrix(1,0,0,1,2126.6666666666665,568) translate(6.51171875 142.7890625)"/><use xlink:href="#bz" transform="matrix(1,0,0,1,2126.6666666666665,568) translate(35.85546875 142.7890625)"/><use xlink:href="#bA" transform="matrix(1,0,0,1,2126.6666666666665,568) translate(58.97265625 142.7890625)"/><use xlink:href="#bB" transform="matrix(1,0,0,1,2126.6666666666665,568) translate(85.66015625 142.7890625)"/><use xlink:href="#aa" transform="matrix(1,0,0,1,2126.6666666666665,568) translate(141.70703125 142.7890625)"/></g><path d="M2126.67 906.67H2300v186.67h-173.33z" stroke="#000" stroke-width="2" fill="#fff"/><g><use xlink:href="#bl" transform="matrix(1,0,0,1,2126.6666666666665,914.6666666666666) translate(14.5078125 53.9609375)"/><use xlink:href="#bm" transform="matrix(1,0,0,1,2126.6666666666665,914.6666666666666) translate(39.40625 53.9609375)"/><use xlink:href="#bn" transform="matrix(1,0,0,1,2126.6666666666665,914.6666666666666) translate(83.890625 53.9609375)"/><use xlink:href="#bo" transform="matrix(1,0,0,1,2126.6666666666665,914.6666666666666) translate(118.5859375 53.9609375)"/><use xlink:href="#L" transform="matrix(1,0,0,1,2126.6666666666665,914.6666666666666) translate(3.3828125 68.765625)"/><use xlink:href="#aQ" transform="matrix(1,0,0,1,2126.6666666666665,914.6666666666666) translate(34.5234375 68.765625)"/><use xlink:href="#x" transform="matrix(1,0,0,1,2126.6666666666665,914.6666666666666) translate(61.2109375 68.765625)"/><use xlink:href="#bp" transform="matrix(1,0,0,1,2126.6666666666665,914.6666666666666) translate(99.453125 68.765625)"/><use xlink:href="#l" transform="matrix(1,0,0,1,2126.6666666666665,914.6666666666666) translate(143.921875 68.765625)"/><use xlink:href="#C" transform="matrix(1,0,0,1,2126.6666666666665,914.6666666666666) translate(9.1875 83.5703125)"/><use xlink:href="#bq" transform="matrix(1,0,0,1,2126.6666666666665,914.6666666666666) translate(35.875 83.5703125)"/><use xlink:href="#br" transform="matrix(1,0,0,1,2126.6666666666665,914.6666666666666) translate(90.984375 83.5703125)"/><use xlink:href="#C" transform="matrix(1,0,0,1,2126.6666666666665,914.6666666666666) translate(15.8515625 98.375)"/><use xlink:href="#bi" transform="matrix(1,0,0,1,2126.6666666666665,914.6666666666666) translate(42.5390625 98.375)"/><use xlink:href="#L" transform="matrix(1,0,0,1,2126.6666666666665,914.6666666666666) translate(109.2109375 98.375)"/><use xlink:href="#v" transform="matrix(1,0,0,1,2126.6666666666665,914.6666666666666) translate(140.3515625 98.375)"/><use xlink:href="#s" transform="matrix(1,0,0,1,2126.6666666666665,914.6666666666666) translate(4.296875 113.1796875)"/><use xlink:href="#bC" transform="matrix(1,0,0,1,2126.6666666666665,914.6666666666666) translate(37.1953125 113.1796875)"/><use xlink:href="#bD" transform="matrix(1,0,0,1,2126.6666666666665,914.6666666666666) translate(90.546875 113.1796875)"/><use xlink:href="#bE" transform="matrix(1,0,0,1,2126.6666666666665,914.6666666666666) translate(151.03125 113.1796875)"/><use xlink:href="#B" transform="matrix(1,0,0,1,2126.6666666666665,914.6666666666666) translate(42.53125 127.984375)"/><use xlink:href="#aD" transform="matrix(1,0,0,1,2126.6666666666665,914.6666666666666) translate(73.6640625 127.984375)"/></g><path d="M1615.83 733.33h297.5V506.67h300v31.7" stroke="#00f" stroke-width="3" fill="none"/><path d="M1615.87 734.83h-1.54v-3h1.54" fill="#00f"/><path d="M2213.33 554.15l-4.63-14.27h9.27z" stroke="#00f" stroke-width="3" fill="#fff"/><path d="M1186.67 840h146.67v133.33h-146.67z" stroke="#000" stroke-width="2" fill="#fff"/><g><use xlink:href="#bF" transform="matrix(1,0,0,1,1186.6666666666665,848) translate(5.3046875 49.66796875)"/><use xlink:href="#bG" transform="matrix(1,0,0,1,1186.6666666666665,848) translate(42.078125 49.66796875)"/><use xlink:href="#bH" transform="matrix(1,0,0,1,1186.6666666666665,848) translate(105.2265625 49.66796875)"/><use xlink:href="#af" transform="matrix(1,0,0,1,1186.6666666666665,848) translate(132.796875 49.66796875)"/><use xlink:href="#bI" transform="matrix(1,0,0,1,1186.6666666666665,848) translate(0.57421875 64.47265625)"/><use xlink:href="#bJ" transform="matrix(1,0,0,1,1186.6666666666665,848) translate(21.91796875 64.47265625)"/><use xlink:href="#u" transform="matrix(1,0,0,1,1186.6666666666665,848) translate(54.81640625 64.47265625)"/><use xlink:href="#aq" transform="matrix(1,0,0,1,1186.6666666666665,848) translate(81.50390625 64.47265625)"/><use xlink:href="#bK" transform="matrix(1,0,0,1,1186.6666666666665,848) translate(111.74609375 64.47265625)"/><use xlink:href="#aA" transform="matrix(1,0,0,1,1186.6666666666665,848) translate(21.4609375 79.27734375)"/><use xlink:href="#o" transform="matrix(1,0,0,1,1186.6666666666665,848) translate(56.15625 79.27734375)"/><use xlink:href="#bL" transform="matrix(1,0,0,1,1186.6666666666665,848) translate(73.9453125 79.27734375)"/></g><path d="M1043.3 815.83l-.73 63.22 122.48-.32" stroke="#00f" stroke-width="3" fill="none"/><path d="M1044.8 815.9l-3-.05.03-1.52h3" fill="#00f"/><path d="M1180.8 878.7l-14.24 4.66-.03-9.27z" stroke="#00f" stroke-width="3" fill="#fff"/><path d="M1335.84 878.68l57.5.37v-42.28l38.37-.14" stroke="#00f" stroke-width="3" fill="none"/><path d="M1335.88 877.18v3h-1.54v-3" fill="#00f"/><path d="M1447.48 836.57l-14.25 4.7-.03-9.28z" stroke="#00f" stroke-width="3" fill="#fff"/><path d="M1335.84 934.65l57.5-.37V1000h38.37" stroke="#00f" stroke-width="3" fill="none"/><path d="M1335.88 936.15h-1.54v-3h1.53" fill="#00f"/><path d="M1447.48 1000l-14.27 4.64v-9.28z" stroke="#00f" stroke-width="3" fill="#fff"/><path d="M1615.83 853.33h250.84v-380h-31.72" stroke="#00f" stroke-width="3" fill="none"/><path d="M1615.87 854.83h-1.54v-3h1.54" fill="#00f"/><path d="M1819.2 473.33l14.25-4.63v9.27z" stroke="#00f" stroke-width="3" fill="#fff"/><path d="M1615.83 1000h489.23" stroke="#00f" stroke-width="3" fill="none"/><path d="M1615.87 1001.5h-1.54v-3h1.54" fill="#00f"/><path d="M2120.8 1000l-14.25 4.64v-9.27z" stroke="#00f" stroke-width="3" fill="#fff"/><defs><path d="M720-1253V0H530v-1253H46v-156h1158v156H720" id="bM"/><path d="M571-1102c350 0 480 196 482 560 2 357-151 562-488 562C233 20 86-198 86-542c0-373 162-560 485-560zm-8 989c244 0 301-164 301-429 0-266-49-427-290-427-239 0-299 165-299 427 0 252 61 429 288 429" id="bN"/><path d="M663-1102c251 0 343 119 343 381V0H825v-686c0-183-40-279-223-277-184 2-280 141-280 336V0H142c-3-345 6-754-6-1082h170c5 68 6 94 8 185h3c76-134 157-205 346-205" id="bO"/><path d="M350 384c-71 46-190 48-283 30V279c25 4 53 6 84 6 123 0 227-124 283-290L5-1082h192c109 293 229 581 326 886 105-293 205-591 307-886h190L604 0c-45 115-86 202-125 258s-83 96-129 126" id="bP"/><g id="a"><use transform="matrix(0.0078125,0,0,0.0078125,0,0)" xlink:href="#bM"/><use transform="matrix(0.0078125,0,0,0.0078125,8,0)" xlink:href="#bN"/><use transform="matrix(0.0078125,0,0,0.0078125,16.8984375,0)" xlink:href="#bO"/><use transform="matrix(0.0078125,0,0,0.0078125,25.796875,0)" xlink:href="#bP"/></g><path d="M824-897c-1-17 6-175 12-185h171c-12 319-6 716-6 1051 0 304-151 456-453 456-226 0-374-90-417-267l181-26c24 102 112 157 241 156 179 0 269-105 269-315 0-57 3-120-2-174C759-74 647 8 472 8 339 8 242-36 180-124S86-350 86-539c0-191 33-332 100-423s169-137 306-137c167 0 273 85 332 202zm-38 579c48-119 46-331 0-450-42-108-118-197-250-197-92 0-154 37-201 100-78 107-74 530-4 643 63 101 251 129 353 47 43-35 77-81 102-143" id="bQ"/><path d="M336-268c2 98 22 139 114 141 24 0 59-5 104-14V-8C495 8 434 16 372 16c-144 0-216-82-216-245v-722H31v-131h132l53-242h120v242h200v131H336v683" id="bR"/><g id="b"><use transform="matrix(0.0078125,0,0,0.0078125,0,0)" xlink:href="#bQ"/><use transform="matrix(0.0078125,0,0,0.0078125,8.8984375,0)" xlink:href="#bN"/><use transform="matrix(0.0078125,0,0,0.0078125,17.796875,0)" xlink:href="#bR"/></g><path d="M816 0L450-494 318-385V0H138v-1484h180v927l475-525h211L565-617 1027 0H816" id="bS"/><path d="M137-1312v-172h180v172H137zM137 0v-1082h180V0H137" id="bT"/><path d="M835 0c-5-29-11-137-10-174h-4C759-45 663 20 484 20 177 20 86-201 86-536c0-377 133-566 398-566 178 1 273 67 339 188-4-187-1-380-2-570h180v1261c0 113 2 187 6 223H835zm-14-554c0-255-58-415-289-415-91 0-151 37-196 101-76 109-77 543-1 651 44 63 105 98 195 98 235 0 291-173 291-435" id="bU"/><path d="M797-207C713-60 620 16 414 20 203 24 88-98 87-302c0-112 37-198 111-258s192-93 356-96l243-4c10-201-43-307-232-305-154 2-223 43-242 172l-188-17c31-195 175-292 434-292s410 116 410 364v466c3 95 12 159 101 161 17 0 37-2 59-7V-6c-45 11-92 16-139 16-143-2-188-76-197-217h-6zm-525-92c-1 116 66 187 183 184 230-7 361-164 342-419-124 5-305-2-389 30-83 32-136 92-136 205" id="bV"/><path d="M320-908c63-128 152-193 335-193 133 0 233 45 299 134s99 230 99 421c0 377-133 566-398 566-167 0-279-63-336-188h-5c8 141 2 428 4 593H138V-861c0-111-2-185-6-221h174c5 33 9 134 10 174h4zm-2 380c0 254 57 415 289 415 89 0 149-37 195-99 76-105 79-547 1-653-45-62-105-97-194-97-243 1-291 184-291 434" id="bW"/><path d="M87-548c0-338 159-553 484-554 325-2 484 204 477 599H276c-1 227 88 385 302 388 146 2 246-65 283-166l158 45C954-65 807 20 578 20 240 20 87-193 87-548zm775-93c-19-206-90-328-294-328-185 0-285 140-290 328h584" id="bX"/><g id="c"><use transform="matrix(0.0078125,0,0,0.0078125,0,0)" xlink:href="#bS"/><use transform="matrix(0.0078125,0,0,0.0078125,8,0)" xlink:href="#bT"/><use transform="matrix(0.0078125,0,0,0.0078125,11.5546875,0)" xlink:href="#bU"/><use transform="matrix(0.0078125,0,0,0.0078125,20.453125,0)" xlink:href="#bO"/><use transform="matrix(0.0078125,0,0,0.0078125,29.3515625,0)" xlink:href="#bV"/><use transform="matrix(0.0078125,0,0,0.0078125,38.25,0)" xlink:href="#bW"/><use transform="matrix(0.0078125,0,0,0.0078125,47.1484375,0)" xlink:href="#bW"/><use transform="matrix(0.0078125,0,0,0.0078125,56.046875,0)" xlink:href="#bX"/><use transform="matrix(0.0078125,0,0,0.0078125,64.9453125,0)" xlink:href="#bU"/></g><path d="M1207-1021c-59-155-207-253-415-253-322-2-494 232-494 563 0 326 186 574 502 574 197 0 346-98 445-293l156 78C1298-131 1096 20 791 20c-448 0-682-279-687-731-5-437 254-721 686-719 309 2 507 125 598 349" id="bY"/><path d="M318-861c55-157 83-241 257-241 24 0 48 3 73 10v165c-24-7-56-10-96-10-75 0-132 33-171 97s-59 156-59 276V0H142c-3-364 6-725-6-1082h170c5 123 8 196 8 221h4" id="bZ"/><g id="d"><use transform="matrix(0.0078125,0,0,0.0078125,0,0)" xlink:href="#bY"/><use transform="matrix(0.0078125,0,0,0.0078125,11.5546875,0)" xlink:href="#bZ"/><use transform="matrix(0.0078125,0,0,0.0078125,16.8828125,0)" xlink:href="#bX"/><use transform="matrix(0.0078125,0,0,0.0078125,25.78125,0)" xlink:href="#bV"/><use transform="matrix(0.0078125,0,0,0.0078125,34.6796875,0)" xlink:href="#bR"/><use transform="matrix(0.0078125,0,0,0.0078125,39.125,0)" xlink:href="#bX"/></g><path d="M322-1484c-2 195 6 405-8 587h3c73-129 159-205 346-205 250 0 342 118 343 381V0H825v-686c3-190-43-277-223-277-176-1-280 140-280 325V0H142v-1484h180" id="ca"/><g id="e"><use transform="matrix(0.0078125,0,0,0.0078125,0,0)" xlink:href="#bR"/><use transform="matrix(0.0078125,0,0,0.0078125,4.4453125,0)" xlink:href="#ca"/><use transform="matrix(0.0078125,0,0,0.0078125,13.34375,0)" xlink:href="#bX"/></g><path d="M740-934C689-691 665-619 508 0H300L-3-1082h178c78 327 154 591 226 933 77-315 163-621 243-933h193c78 311 160 619 235 933 72-318 158-621 236-933h176L1174 0H965c-74-312-158-615-225-934" id="cb"/><g id="f"><use transform="matrix(0.0078125,0,0,0.0078125,0,0)" xlink:href="#cb"/><use transform="matrix(0.0078125,0,0,0.0078125,11.5546875,0)" xlink:href="#bX"/><use transform="matrix(0.0078125,0,0,0.0078125,20.453125,0)" xlink:href="#bV"/><use transform="matrix(0.0078125,0,0,0.0078125,29.3515625,0)" xlink:href="#bW"/><use transform="matrix(0.0078125,0,0,0.0078125,38.25,0)" xlink:href="#bN"/><use transform="matrix(0.0078125,0,0,0.0078125,47.1484375,0)" xlink:href="#bO"/></g><path d="M634-1409c461-4 751 239 747 690-4 441-249 719-686 719H168v-1409h466zm39 1256c337-8 514-222 516-566 2-353-203-539-559-537H359v1103h314" id="cc"/><path d="M513-963c-139 1-238 29-238 149 0 72 41 100 95 127 55 27 348 94 404 125 101 56 176 118 176 263C950-73 758 21 511 20 254 19 107-55 57-254l159-31c34 123 133 168 295 168 156 0 264-34 264-168 0-156-183-165-315-204-171-51-245-68-323-172-26-35-37-82-37-135 0-220 172-304 413-303 232 1 379 74 418 265l-162 20c-23-104-122-150-256-149" id="cd"/><g id="g"><use transform="matrix(0.0078125,0,0,0.0078125,0,0)" xlink:href="#cc"/><use transform="matrix(0.0078125,0,0,0.0078125,11.5546875,0)" xlink:href="#bN"/><use transform="matrix(0.0078125,0,0,0.0078125,20.453125,0)" xlink:href="#bX"/><use transform="matrix(0.0078125,0,0,0.0078125,29.3515625,0)" xlink:href="#cd"/></g><g id="h"><use transform="matrix(0.0078125,0,0,0.0078125,0,0)" xlink:href="#bO"/><use transform="matrix(0.0078125,0,0,0.0078125,8.8984375,0)" xlink:href="#bN"/><use transform="matrix(0.0078125,0,0,0.0078125,17.796875,0)" xlink:href="#bR"/></g><path d="M779-765c-19-119-93-196-233-196-95 0-164 32-207 95s-64 170-64 320c0 144 23 251 68 320s114 104 205 104c139 0 224-79 240-212l182 12C946-119 781 22 553 20 230 17 87-201 87-542c0-338 145-557 464-560 225-1 380 129 413 323" id="ce"/><g id="i"><use transform="matrix(0.0078125,0,0,0.0078125,0,0)" xlink:href="#ce"/><use transform="matrix(0.0078125,0,0,0.0078125,8,0)" xlink:href="#bZ"/><use transform="matrix(0.0078125,0,0,0.0078125,13.328125,0)" xlink:href="#bX"/><use transform="matrix(0.0078125,0,0,0.0078125,22.2265625,0)" xlink:href="#bV"/><use transform="matrix(0.0078125,0,0,0.0078125,31.125,0)" xlink:href="#bR"/><use transform="matrix(0.0078125,0,0,0.0078125,35.5703125,0)" xlink:href="#bX"/></g><path d="M359-1253v524h786v158H359V0H168v-1409h1001v156H359" id="cf"/><path d="M138 0v-1484h180V0H138" id="cg"/><g id="j"><use transform="matrix(0.0078125,0,0,0.0078125,0,0)" xlink:href="#cf"/><use transform="matrix(0.0078125,0,0,0.0078125,9.7734375,0)" xlink:href="#bN"/><use transform="matrix(0.0078125,0,0,0.0078125,18.671875,0)" xlink:href="#bN"/><use transform="matrix(0.0078125,0,0,0.0078125,27.5703125,0)" xlink:href="#cg"/></g><path d="M1195-963c-175 0-249 144-249 336V0H768v-686c-5-190-26-277-198-277-171 0-249 147-249 336V0H142c-3-345 6-754-6-1082h170c5 68 6 94 8 185h3c69-134 140-205 316-205 171 0 257 66 294 205h3c67-129 152-205 328-205 238 0 313 127 313 381V0h-178v-686c-5-190-26-277-198-277" id="ch"/><g id="k"><use transform="matrix(0.0078125,0,0,0.0078125,0,0)" xlink:href="#bR"/><use transform="matrix(0.0078125,0,0,0.0078125,4.4453125,0)" xlink:href="#ca"/><use transform="matrix(0.0078125,0,0,0.0078125,13.34375,0)" xlink:href="#bX"/><use transform="matrix(0.0078125,0,0,0.0078125,22.2421875,0)" xlink:href="#ch"/></g><g id="l"><use transform="matrix(0.0078125,0,0,0.0078125,0,0)" xlink:href="#bV"/><use transform="matrix(0.0078125,0,0,0.0078125,8.8984375,0)" xlink:href="#bO"/><use transform="matrix(0.0078125,0,0,0.0078125,17.796875,0)" xlink:href="#bU"/></g><use transform="matrix(0.0078125,0,0,0.0078125,0,0)" xlink:href="#bV" id="m"/><g id="n"><use transform="matrix(0.0078125,0,0,0.0078125,0,0)" xlink:href="#cb"/><use transform="matrix(0.0078125,0,0,0.0078125,11.5546875,0)" xlink:href="#bV"/><use transform="matrix(0.0078125,0,0,0.0078125,20.453125,0)" xlink:href="#bP"/></g><g id="o"><use transform="matrix(0.0078125,0,0,0.0078125,0,0)" xlink:href="#bR"/><use transform="matrix(0.0078125,0,0,0.0078125,4.4453125,0)" xlink:href="#bN"/></g><g id="p"><use transform="matrix(0.0078125,0,0,0.0078125,0,0)" xlink:href="#bX"/><use transform="matrix(0.0078125,0,0,0.0078125,8.8984375,0)" xlink:href="#cd"/><use transform="matrix(0.0078125,0,0,0.0078125,16.8984375,0)" xlink:href="#ce"/><use transform="matrix(0.0078125,0,0,0.0078125,24.8984375,0)" xlink:href="#bV"/><use transform="matrix(0.0078125,0,0,0.0078125,33.796875,0)" xlink:href="#bW"/><use transform="matrix(0.0078125,0,0,0.0078125,42.6953125,0)" xlink:href="#bX"/></g><g id="q"><use transform="matrix(0.0078125,0,0,0.0078125,0,0)" xlink:href="#bT"/><use transform="matrix(0.0078125,0,0,0.0078125,3.5546875,0)" xlink:href="#bO"/><use transform="matrix(0.0078125,0,0,0.0078125,12.453125,0)" xlink:href="#cd"/><use transform="matrix(0.0078125,0,0,0.0078125,20.453125,0)" xlink:href="#bR"/><use transform="matrix(0.0078125,0,0,0.0078125,24.8984375,0)" xlink:href="#bX"/><use transform="matrix(0.0078125,0,0,0.0078125,33.796875,0)" xlink:href="#bV"/><use transform="matrix(0.0078125,0,0,0.0078125,42.6953125,0)" xlink:href="#bU"/></g><g id="r"><use transform="matrix(0.0078125,0,0,0.0078125,0,0)" xlink:href="#ca"/><use transform="matrix(0.0078125,0,0,0.0078125,8.8984375,0)" xlink:href="#bX"/></g><g id="s"><use transform="matrix(0.0078125,0,0,0.0078125,0,0)" xlink:href="#cb"/><use transform="matrix(0.0078125,0,0,0.0078125,11.5546875,0)" xlink:href="#bV"/><use transform="matrix(0.0078125,0,0,0.0078125,20.453125,0)" xlink:href="#cd"/></g><path d="M492-1341c-103 3-130 49-131 162v97h211v131H361V0H181v-951H29v-131h152v-122c0-192 78-276 264-278 50 0 92 4 127 12v137c-30-5-57-8-80-8" id="ci"/><g id="t"><use transform="matrix(0.0078125,0,0,0.0078125,0,0)" xlink:href="#ci"/><use transform="matrix(0.0078125,0,0,0.0078125,4.4453125,0)" xlink:href="#bZ"/><use transform="matrix(0.0078125,0,0,0.0078125,9.7734375,0)" xlink:href="#bX"/><use transform="matrix(0.0078125,0,0,0.0078125,18.671875,0)" xlink:href="#bX"/></g><path d="M655-1102c307 0 398 221 398 556 0 377-133 566-398 566-180 0-272-66-339-188 1 22-7 151-10 168H132c4-36 6-110 6-223v-1261h180c-2 196 4 384-4 576h4c62-129 158-194 337-194zM318-529c0 254 57 416 289 416 91 0 152-37 197-101 76-109 76-543 0-651-44-63-105-98-195-98-236 0-291 169-291 434" id="cj"/><path d="M476 20C225 20 133-99 133-361v-721h181v686c0 183 40 279 223 277 184-2 280-141 280-336v-627h180c3 345-6 754 6 1082H833c-5-68-6-94-8-185h-3C746-51 665 20 476 20" id="ck"/><g id="u"><use transform="matrix(0.0078125,0,0,0.0078125,0,0)" xlink:href="#cj"/><use transform="matrix(0.0078125,0,0,0.0078125,8.8984375,0)" xlink:href="#ck"/><use transform="matrix(0.0078125,0,0,0.0078125,17.796875,0)" xlink:href="#bR"/></g><g id="v"><use transform="matrix(0.0078125,0,0,0.0078125,0,0)" xlink:href="#ca"/><use transform="matrix(0.0078125,0,0,0.0078125,8.8984375,0)" xlink:href="#bX"/></g><g id="w"><use transform="matrix(0.0078125,0,0,0.0078125,0,0)" xlink:href="#cb"/><use transform="matrix(0.0078125,0,0,0.0078125,11.5546875,0)" xlink:href="#bX"/><use transform="matrix(0.0078125,0,0,0.0078125,20.453125,0)" xlink:href="#bO"/><use transform="matrix(0.0078125,0,0,0.0078125,29.3515625,0)" xlink:href="#bR"/></g><g id="x"><use transform="matrix(0.0078125,0,0,0.0078125,0,0)" xlink:href="#cj"/><use transform="matrix(0.0078125,0,0,0.0078125,8.8984375,0)" xlink:href="#bV"/><use transform="matrix(0.0078125,0,0,0.0078125,17.796875,0)" xlink:href="#ce"/><use transform="matrix(0.0078125,0,0,0.0078125,25.796875,0)" xlink:href="#bS"/></g><path d="M137-1312v-172h180v172H137zM12 283c109-5 125-52 125-176v-1189h180V134c0 189-65 291-240 291-51 0-94-3-127-9V277" id="cl"/><g id="y"><use transform="matrix(0.0078125,0,0,0.0078125,0,0)" xlink:href="#cl"/><use transform="matrix(0.0078125,0,0,0.0078125,3.5546875,0)" xlink:href="#ck"/><use transform="matrix(0.0078125,0,0,0.0078125,12.453125,0)" xlink:href="#cd"/><use transform="matrix(0.0078125,0,0,0.0078125,20.453125,0)" xlink:href="#bR"/></g><g id="z"><use transform="matrix(0.0078125,0,0,0.0078125,0,0)" xlink:href="#ci"/><use transform="matrix(0.0078125,0,0,0.0078125,4.4453125,0)" xlink:href="#bT"/><use transform="matrix(0.0078125,0,0,0.0078125,8,0)" xlink:href="#bO"/><use transform="matrix(0.0078125,0,0,0.0078125,16.8984375,0)" xlink:href="#bU"/></g><g id="A"><use transform="matrix(0.0078125,0,0,0.0078125,0,0)" xlink:href="#bN"/><use transform="matrix(0.0078125,0,0,0.0078125,8.8984375,0)" xlink:href="#ck"/><use transform="matrix(0.0078125,0,0,0.0078125,17.796875,0)" xlink:href="#bR"/></g><g id="B"><use transform="matrix(0.0078125,0,0,0.0078125,0,0)" xlink:href="#bR"/><use transform="matrix(0.0078125,0,0,0.0078125,4.4453125,0)" xlink:href="#ca"/><use transform="matrix(0.0078125,0,0,0.0078125,13.34375,0)" xlink:href="#bV"/><use transform="matrix(0.0078125,0,0,0.0078125,22.2421875,0)" xlink:href="#bR"/></g><g id="C"><use transform="matrix(0.0078125,0,0,0.0078125,0,0)" xlink:href="#bR"/><use transform="matrix(0.0078125,0,0,0.0078125,4.4453125,0)" xlink:href="#ca"/><use transform="matrix(0.0078125,0,0,0.0078125,13.34375,0)" xlink:href="#bX"/></g><g id="D"><use transform="matrix(0.0078125,0,0,0.0078125,0,0)" xlink:href="#cb"/><use transform="matrix(0.0078125,0,0,0.0078125,11.5546875,0)" xlink:href="#bX"/><use transform="matrix(0.0078125,0,0,0.0078125,20.453125,0)" xlink:href="#bV"/><use transform="matrix(0.0078125,0,0,0.0078125,29.3515625,0)" xlink:href="#bW"/><use transform="matrix(0.0078125,0,0,0.0078125,38.25,0)" xlink:href="#bN"/><use transform="matrix(0.0078125,0,0,0.0078125,47.1484375,0)" xlink:href="#bO"/></g><g id="E"><use transform="matrix(0.0078125,0,0,0.0078125,0,0)" xlink:href="#ck"/><use transform="matrix(0.0078125,0,0,0.0078125,8.8984375,0)" xlink:href="#cd"/><use transform="matrix(0.0078125,0,0,0.0078125,16.8984375,0)" xlink:href="#bX"/><use transform="matrix(0.0078125,0,0,0.0078125,25.796875,0)" xlink:href="#bU"/></g><g id="F"><use transform="matrix(0.0078125,0,0,0.0078125,0,0)" xlink:href="#bU"/><use transform="matrix(0.0078125,0,0,0.0078125,8.8984375,0)" xlink:href="#bX"/><use transform="matrix(0.0078125,0,0,0.0078125,17.796875,0)" xlink:href="#cd"/><use transform="matrix(0.0078125,0,0,0.0078125,25.796875,0)" xlink:href="#bR"/><use transform="matrix(0.0078125,0,0,0.0078125,30.2421875,0)" xlink:href="#bZ"/><use transform="matrix(0.0078125,0,0,0.0078125,35.5703125,0)" xlink:href="#bP"/></g><g id="G"><use transform="matrix(0.0078125,0,0,0.0078125,0,0)" xlink:href="#ca"/><use transform="matrix(0.0078125,0,0,0.0078125,8.8984375,0)" xlink:href="#bT"/><use transform="matrix(0.0078125,0,0,0.0078125,12.453125,0)" xlink:href="#cd"/></g><g id="H"><use transform="matrix(0.0078125,0,0,0.0078125,0,0)" xlink:href="#ce"/><use transform="matrix(0.0078125,0,0,0.0078125,8,0)" xlink:href="#bN"/><use transform="matrix(0.0078125,0,0,0.0078125,16.8984375,0)" xlink:href="#ck"/><use transform="matrix(0.0078125,0,0,0.0078125,25.796875,0)" xlink:href="#bO"/><use transform="matrix(0.0078125,0,0,0.0078125,34.6953125,0)" xlink:href="#bR"/><use transform="matrix(0.0078125,0,0,0.0078125,39.140625,0)" xlink:href="#bZ"/><use transform="matrix(0.0078125,0,0,0.0078125,44.46875,0)" xlink:href="#bP"/></g><g id="I"><use transform="matrix(0.0078125,0,0,0.0078125,0,0)" xlink:href="#cb"/><use transform="matrix(0.0078125,0,0,0.0078125,11.5546875,0)" xlink:href="#bV"/><use transform="matrix(0.0078125,0,0,0.0078125,20.453125,0)" xlink:href="#cd"/></g><g id="J"><use transform="matrix(0.0078125,0,0,0.0078125,0,0)" xlink:href="#bR"/><use transform="matrix(0.0078125,0,0,0.0078125,4.4453125,0)" xlink:href="#bN"/><use transform="matrix(0.0078125,0,0,0.0078125,13.34375,0)" xlink:href="#bZ"/><use transform="matrix(0.0078125,0,0,0.0078125,18.671875,0)" xlink:href="#bR"/><use transform="matrix(0.0078125,0,0,0.0078125,23.1171875,0)" xlink:href="#ck"/><use transform="matrix(0.0078125,0,0,0.0078125,32.015625,0)" xlink:href="#bZ"/><use transform="matrix(0.0078125,0,0,0.0078125,37.34375,0)" xlink:href="#bX"/><use transform="matrix(0.0078125,0,0,0.0078125,46.2421875,0)" xlink:href="#bU"/></g><g id="K"><use transform="matrix(0.0078125,0,0,0.0078125,0,0)" xlink:href="#cg"/><use transform="matrix(0.0078125,0,0,0.0078125,3.5546875,0)" xlink:href="#bN"/><use transform="matrix(0.0078125,0,0,0.0078125,12.453125,0)" xlink:href="#bR"/></g><g id="L"><use transform="matrix(0.0078125,0,0,0.0078125,0,0)" xlink:href="#bV"/><use transform="matrix(0.0078125,0,0,0.0078125,8.8984375,0)" xlink:href="#bO"/><use transform="matrix(0.0078125,0,0,0.0078125,17.796875,0)" xlink:href="#bU"/></g><g id="M"><use transform="matrix(0.0078125,0,0,0.0078125,0,0)" xlink:href="#cg"/><use transform="matrix(0.0078125,0,0,0.0078125,3.5546875,0)" xlink:href="#bX"/><use transform="matrix(0.0078125,0,0,0.0078125,12.453125,0)" xlink:href="#ci"/><use transform="matrix(0.0078125,0,0,0.0078125,16.8984375,0)" xlink:href="#bR"/></g><g id="N"><use transform="matrix(0.0078125,0,0,0.0078125,0,0)" xlink:href="#cb"/><use transform="matrix(0.0078125,0,0,0.0078125,11.5546875,0)" xlink:href="#bT"/><use transform="matrix(0.0078125,0,0,0.0078125,15.109375,0)" xlink:href="#bR"/><use transform="matrix(0.0078125,0,0,0.0078125,19.5546875,0)" xlink:href="#ca"/></g><path d="M797-1430c449 5 698 268 698 719S1245 20 795 20C342 20 103-258 97-711c-6-442 260-724 700-719zm-2 1295c338 0 505-227 505-576 0-336-175-563-503-563-332 0-506 222-506 563 0 335 178 576 504 576" id="cm"/><g id="O"><use transform="matrix(0.0078125,0,0,0.0078125,0,0)" xlink:href="#cm"/><use transform="matrix(0.0078125,0,0,0.0078125,12.4453125,0)" xlink:href="#cj"/><use transform="matrix(0.0078125,0,0,0.0078125,21.34375,0)" xlink:href="#bX"/><use transform="matrix(0.0078125,0,0,0.0078125,30.2421875,0)" xlink:href="#bP"/></g><g id="P"><use transform="matrix(0.0078125,0,0,0.0078125,0,0)" xlink:href="#cc"/><use transform="matrix(0.0078125,0,0,0.0078125,11.5546875,0)" xlink:href="#bT"/><use transform="matrix(0.0078125,0,0,0.0078125,15.109375,0)" xlink:href="#cd"/><use transform="matrix(0.0078125,0,0,0.0078125,23.109375,0)" xlink:href="#bN"/><use transform="matrix(0.0078125,0,0,0.0078125,32.0078125,0)" xlink:href="#cj"/><use transform="matrix(0.0078125,0,0,0.0078125,40.90625,0)" xlink:href="#bX"/><use transform="matrix(0.0078125,0,0,0.0078125,49.8046875,0)" xlink:href="#bP"/></g><g id="Q"><use transform="matrix(0.0078125,0,0,0.0078125,0,0)" xlink:href="#cj"/><use transform="matrix(0.0078125,0,0,0.0078125,8.8984375,0)" xlink:href="#bX"/><use transform="matrix(0.0078125,0,0,0.0078125,17.796875,0)" xlink:href="#ce"/><use transform="matrix(0.0078125,0,0,0.0078125,25.796875,0)" xlink:href="#bV"/><use transform="matrix(0.0078125,0,0,0.0078125,34.6953125,0)" xlink:href="#ck"/><use transform="matrix(0.0078125,0,0,0.0078125,43.59375,0)" xlink:href="#cd"/><use transform="matrix(0.0078125,0,0,0.0078125,51.59375,0)" xlink:href="#bX"/></g><g id="R"><use transform="matrix(0.0078125,0,0,0.0078125,0,0)" xlink:href="#ca"/><use transform="matrix(0.0078125,0,0,0.0078125,8.8984375,0)" xlink:href="#bX"/></g><g id="S"><use transform="matrix(0.0078125,0,0,0.0078125,0,0)" xlink:href="#bZ"/><use transform="matrix(0.0078125,0,0,0.0078125,5.328125,0)" xlink:href="#bX"/><use transform="matrix(0.0078125,0,0,0.0078125,14.2265625,0)" xlink:href="#ci"/><use transform="matrix(0.0078125,0,0,0.0078125,18.671875,0)" xlink:href="#ck"/><use transform="matrix(0.0078125,0,0,0.0078125,27.5703125,0)" xlink:href="#cd"/><use transform="matrix(0.0078125,0,0,0.0078125,35.5703125,0)" xlink:href="#bX"/><use transform="matrix(0.0078125,0,0,0.0078125,44.46875,0)" xlink:href="#bU"/></g><g id="T"><use transform="matrix(0.0078125,0,0,0.0078125,0,0)" xlink:href="#cj"/><use transform="matrix(0.0078125,0,0,0.0078125,8.8984375,0)" xlink:href="#ck"/><use transform="matrix(0.0078125,0,0,0.0078125,17.796875,0)" xlink:href="#bT"/><use transform="matrix(0.0078125,0,0,0.0078125,21.3515625,0)" xlink:href="#cg"/><use transform="matrix(0.0078125,0,0,0.0078125,24.90625,0)" xlink:href="#bU"/></g><g id="U"><use transform="matrix(0.0078125,0,0,0.0078125,0,0)" xlink:href="#bT"/><use transform="matrix(0.0078125,0,0,0.0078125,3.5546875,0)" xlink:href="#bR"/></g><g id="V"><use transform="matrix(0.0078125,0,0,0.0078125,0,0)" xlink:href="#bR"/><use transform="matrix(0.0078125,0,0,0.0078125,4.4453125,0)" xlink:href="#ca"/><use transform="matrix(0.0078125,0,0,0.0078125,13.34375,0)" xlink:href="#bX"/><use transform="matrix(0.0078125,0,0,0.0078125,22.2421875,0)" xlink:href="#bP"/></g><g id="W"><use transform="matrix(0.0078125,0,0,0.0078125,0,0)" xlink:href="#ca"/><use transform="matrix(0.0078125,0,0,0.0078125,8.8984375,0)" xlink:href="#bV"/><use transform="matrix(0.0078125,0,0,0.0078125,17.796875,0)" xlink:href="#bU"/></g><g id="X"><use transform="matrix(0.0078125,0,0,0.0078125,0,0)" xlink:href="#bO"/><use transform="matrix(0.0078125,0,0,0.0078125,8.8984375,0)" xlink:href="#bN"/></g><g id="Y"><use transform="matrix(0.0078125,0,0,0.0078125,0,0)" xlink:href="#ce"/><use transform="matrix(0.0078125,0,0,0.0078125,8,0)" xlink:href="#ca"/><use transform="matrix(0.0078125,0,0,0.0078125,16.8984375,0)" xlink:href="#bN"/><use transform="matrix(0.0078125,0,0,0.0078125,25.796875,0)" xlink:href="#bT"/><use transform="matrix(0.0078125,0,0,0.0078125,29.3515625,0)" xlink:href="#ce"/><use transform="matrix(0.0078125,0,0,0.0078125,37.3515625,0)" xlink:href="#bX"/></g><g id="Z"><use transform="matrix(0.0078125,0,0,0.0078125,0,0)" xlink:href="#bS"/><use transform="matrix(0.0078125,0,0,0.0078125,8,0)" xlink:href="#bT"/><use transform="matrix(0.0078125,0,0,0.0078125,11.5546875,0)" xlink:href="#cg"/><use transform="matrix(0.0078125,0,0,0.0078125,15.109375,0)" xlink:href="#cg"/></g><g id="aa"><use transform="matrix(0.0078125,0,0,0.0078125,0,0)" xlink:href="#ca"/><use transform="matrix(0.0078125,0,0,0.0078125,8.8984375,0)" xlink:href="#bT"/><use transform="matrix(0.0078125,0,0,0.0078125,12.453125,0)" xlink:href="#ch"/></g><g id="ab"><use transform="matrix(0.0078125,0,0,0.0078125,0,0)" xlink:href="#ce"/><use transform="matrix(0.0078125,0,0,0.0078125,8,0)" xlink:href="#bZ"/><use transform="matrix(0.0078125,0,0,0.0078125,13.328125,0)" xlink:href="#bX"/><use transform="matrix(0.0078125,0,0,0.0078125,22.2265625,0)" xlink:href="#bV"/><use transform="matrix(0.0078125,0,0,0.0078125,31.125,0)" xlink:href="#bR"/><use transform="matrix(0.0078125,0,0,0.0078125,35.5703125,0)" xlink:href="#bX"/><use transform="matrix(0.0078125,0,0,0.0078125,44.46875,0)" xlink:href="#bU"/></g><g id="ac"><use transform="matrix(0.0078125,0,0,0.0078125,0,0)" xlink:href="#bX"/><use transform="matrix(0.0078125,0,0,0.0078125,8.8984375,0)" xlink:href="#cd"/><use transform="matrix(0.0078125,0,0,0.0078125,16.8984375,0)" xlink:href="#ce"/><use transform="matrix(0.0078125,0,0,0.0078125,24.8984375,0)" xlink:href="#bV"/><use transform="matrix(0.0078125,0,0,0.0078125,33.796875,0)" xlink:href="#bW"/><use transform="matrix(0.0078125,0,0,0.0078125,42.6953125,0)" xlink:href="#bX"/></g><g id="ad"><use transform="matrix(0.0078125,0,0,0.0078125,0,0)" xlink:href="#bT"/><use transform="matrix(0.0078125,0,0,0.0078125,3.5546875,0)" xlink:href="#bO"/><use transform="matrix(0.0078125,0,0,0.0078125,12.453125,0)" xlink:href="#ci"/><use transform="matrix(0.0078125,0,0,0.0078125,16.8984375,0)" xlink:href="#bZ"/><use transform="matrix(0.0078125,0,0,0.0078125,22.2265625,0)" xlink:href="#bN"/><use transform="matrix(0.0078125,0,0,0.0078125,31.125,0)" xlink:href="#bO"/><use transform="matrix(0.0078125,0,0,0.0078125,40.0234375,0)" xlink:href="#bR"/></g><g id="ae"><use transform="matrix(0.0078125,0,0,0.0078125,0,0)" xlink:href="#bN"/><use transform="matrix(0.0078125,0,0,0.0078125,8.8984375,0)" xlink:href="#ci"/></g><use transform="matrix(0.0078125,0,0,0.0078125,0,0)" xlink:href="#bV" id="af"/><g id="ag"><use transform="matrix(0.0078125,0,0,0.0078125,0,0)" xlink:href="#ca"/><use transform="matrix(0.0078125,0,0,0.0078125,8.8984375,0)" xlink:href="#bV"/><use transform="matrix(0.0078125,0,0,0.0078125,17.796875,0)" xlink:href="#bZ"/><use transform="matrix(0.0078125,0,0,0.0078125,23.125,0)" xlink:href="#bU"/></g><g id="ah"><use transform="matrix(0.0078125,0,0,0.0078125,0,0)" xlink:href="#ce"/><use transform="matrix(0.0078125,0,0,0.0078125,8,0)" xlink:href="#ca"/><use transform="matrix(0.0078125,0,0,0.0078125,16.8984375,0)" xlink:href="#bN"/><use transform="matrix(0.0078125,0,0,0.0078125,25.796875,0)" xlink:href="#bT"/><use transform="matrix(0.0078125,0,0,0.0078125,29.3515625,0)" xlink:href="#ce"/><use transform="matrix(0.0078125,0,0,0.0078125,37.3515625,0)" xlink:href="#bX"/></g><path d="M168 0v-1409h1069v156H359v452h818v154H359v491h919V0H168" id="cn"/><g id="ai"><use transform="matrix(0.0078125,0,0,0.0078125,0,0)" xlink:href="#cn"/><use transform="matrix(0.0078125,0,0,0.0078125,10.671875,0)" xlink:href="#cd"/><use transform="matrix(0.0078125,0,0,0.0078125,18.671875,0)" xlink:href="#ce"/><use transform="matrix(0.0078125,0,0,0.0078125,26.671875,0)" xlink:href="#bV"/><use transform="matrix(0.0078125,0,0,0.0078125,35.5703125,0)" xlink:href="#bW"/><use transform="matrix(0.0078125,0,0,0.0078125,44.46875,0)" xlink:href="#bX"/></g><g id="aj"><use transform="matrix(0.0078125,0,0,0.0078125,0,0)" xlink:href="#bV"/><use transform="matrix(0.0078125,0,0,0.0078125,8.8984375,0)" xlink:href="#cg"/><use transform="matrix(0.0078125,0,0,0.0078125,12.453125,0)" xlink:href="#bN"/><use transform="matrix(0.0078125,0,0,0.0078125,21.3515625,0)" xlink:href="#bO"/><use transform="matrix(0.0078125,0,0,0.0078125,30.25,0)" xlink:href="#bX"/></g><path d="M1121 0v-653H359V0H168v-1409h191v596h762v-596h191V0h-191" id="co"/><g id="ak"><use transform="matrix(0.0078125,0,0,0.0078125,0,0)" xlink:href="#co"/><use transform="matrix(0.0078125,0,0,0.0078125,11.5546875,0)" xlink:href="#bX"/><use transform="matrix(0.0078125,0,0,0.0078125,20.453125,0)" xlink:href="#cg"/><use transform="matrix(0.0078125,0,0,0.0078125,24.0078125,0)" xlink:href="#bW"/></g><g id="al"><use transform="matrix(0.0078125,0,0,0.0078125,0,0)" xlink:href="#bW"/><use transform="matrix(0.0078125,0,0,0.0078125,8.8984375,0)" xlink:href="#bZ"/><use transform="matrix(0.0078125,0,0,0.0078125,14.2265625,0)" xlink:href="#bT"/><use transform="matrix(0.0078125,0,0,0.0078125,17.78125,0)" xlink:href="#cd"/><use transform="matrix(0.0078125,0,0,0.0078125,25.78125,0)" xlink:href="#bN"/><use transform="matrix(0.0078125,0,0,0.0078125,34.6796875,0)" xlink:href="#bO"/><use transform="matrix(0.0078125,0,0,0.0078125,43.578125,0)" xlink:href="#bX"/><use transform="matrix(0.0078125,0,0,0.0078125,52.4765625,0)" xlink:href="#bZ"/></g><g id="am"><use transform="matrix(0.0078125,0,0,0.0078125,0,0)" xlink:href="#cb"/><use transform="matrix(0.0078125,0,0,0.0078125,11.5546875,0)" xlink:href="#bT"/><use transform="matrix(0.0078125,0,0,0.0078125,15.109375,0)" xlink:href="#bR"/><use transform="matrix(0.0078125,0,0,0.0078125,19.5546875,0)" xlink:href="#ca"/></g><g id="an"><use transform="matrix(0.0078125,0,0,0.0078125,0,0)" xlink:href="#bM"/><use transform="matrix(0.0078125,0,0,0.0078125,9.7734375,0)" xlink:href="#ca"/><use transform="matrix(0.0078125,0,0,0.0078125,18.671875,0)" xlink:href="#bX"/></g><g id="ao"><use transform="matrix(0.0078125,0,0,0.0078125,0,0)" xlink:href="#bW"/><use transform="matrix(0.0078125,0,0,0.0078125,8.8984375,0)" xlink:href="#bZ"/><use transform="matrix(0.0078125,0,0,0.0078125,14.2265625,0)" xlink:href="#bT"/><use transform="matrix(0.0078125,0,0,0.0078125,17.78125,0)" xlink:href="#cd"/><use transform="matrix(0.0078125,0,0,0.0078125,25.78125,0)" xlink:href="#bN"/><use transform="matrix(0.0078125,0,0,0.0078125,34.6796875,0)" xlink:href="#bO"/><use transform="matrix(0.0078125,0,0,0.0078125,43.578125,0)" xlink:href="#bX"/><use transform="matrix(0.0078125,0,0,0.0078125,52.4765625,0)" xlink:href="#bZ"/></g><g id="ap"><use transform="matrix(0.0078125,0,0,0.0078125,0,0)" xlink:href="#cd"/><use transform="matrix(0.0078125,0,0,0.0078125,8,0)" xlink:href="#cg"/><use transform="matrix(0.0078125,0,0,0.0078125,11.5546875,0)" xlink:href="#bN"/><use transform="matrix(0.0078125,0,0,0.0078125,20.453125,0)" xlink:href="#cb"/><use transform="matrix(0.0078125,0,0,0.0078125,32.0078125,0)" xlink:href="#bX"/><use transform="matrix(0.0078125,0,0,0.0078125,40.90625,0)" xlink:href="#bU"/></g><g id="aq"><use transform="matrix(0.0078125,0,0,0.0078125,0,0)" xlink:href="#bP"/><use transform="matrix(0.0078125,0,0,0.0078125,8,0)" xlink:href="#bN"/><use transform="matrix(0.0078125,0,0,0.0078125,16.8984375,0)" xlink:href="#ck"/></g><path d="M385-51c0 144-24 223-78 313H184c63-91 94-178 94-262h-88v-219h195v168" id="cp"/><g id="ar"><use transform="matrix(0.0078125,0,0,0.0078125,0,0)" xlink:href="#bU"/><use transform="matrix(0.0078125,0,0,0.0078125,8.8984375,0)" xlink:href="#bN"/><use transform="matrix(0.0078125,0,0,0.0078125,17.796875,0)" xlink:href="#cb"/><use transform="matrix(0.0078125,0,0,0.0078125,29.3515625,0)" xlink:href="#bO"/><use transform="matrix(0.0078125,0,0,0.0078125,38.25,0)" xlink:href="#cp"/></g><g id="as"><use transform="matrix(0.0078125,0,0,0.0078125,0,0)" xlink:href="#cd"/><use transform="matrix(0.0078125,0,0,0.0078125,8,0)" xlink:href="#bV"/><use transform="matrix(0.0078125,0,0,0.0078125,16.8984375,0)" xlink:href="#bU"/><use transform="matrix(0.0078125,0,0,0.0078125,25.796875,0)" xlink:href="#cg"/><use transform="matrix(0.0078125,0,0,0.0078125,29.3515625,0)" xlink:href="#bP"/></g><g id="at"><use transform="matrix(0.0078125,0,0,0.0078125,0,0)" xlink:href="#bS"/><use transform="matrix(0.0078125,0,0,0.0078125,8,0)" xlink:href="#bT"/><use transform="matrix(0.0078125,0,0,0.0078125,11.5546875,0)" xlink:href="#cg"/><use transform="matrix(0.0078125,0,0,0.0078125,15.109375,0)" xlink:href="#cg"/><use transform="matrix(0.0078125,0,0,0.0078125,18.6640625,0)" xlink:href="#bX"/><use transform="matrix(0.0078125,0,0,0.0078125,27.5625,0)" xlink:href="#bU"/></g><g id="au"><use transform="matrix(0.0078125,0,0,0.0078125,0,0)" xlink:href="#cj"/><use transform="matrix(0.0078125,0,0,0.0078125,8.8984375,0)" xlink:href="#bV"/><use transform="matrix(0.0078125,0,0,0.0078125,17.796875,0)" xlink:href="#bZ"/><use transform="matrix(0.0078125,0,0,0.0078125,23.125,0)" xlink:href="#bX"/><use transform="matrix(0.0078125,0,0,0.0078125,32.0234375,0)" xlink:href="#cg"/><use transform="matrix(0.0078125,0,0,0.0078125,35.578125,0)" xlink:href="#bP"/></g><g id="av"><use transform="matrix(0.0078125,0,0,0.0078125,0,0)" xlink:href="#bX"/><use transform="matrix(0.0078125,0,0,0.0078125,8.8984375,0)" xlink:href="#cd"/><use transform="matrix(0.0078125,0,0,0.0078125,16.8984375,0)" xlink:href="#ce"/><use transform="matrix(0.0078125,0,0,0.0078125,24.8984375,0)" xlink:href="#bV"/><use transform="matrix(0.0078125,0,0,0.0078125,33.796875,0)" xlink:href="#bW"/><use transform="matrix(0.0078125,0,0,0.0078125,42.6953125,0)" xlink:href="#bX"/><use transform="matrix(0.0078125,0,0,0.0078125,51.59375,0)" xlink:href="#bU"/></g><path d="M777-584V0H587v-584L45-1409h210l429 671 427-671h210" id="cq"/><g id="aw"><use transform="matrix(0.0078125,0,0,0.0078125,0,0)" xlink:href="#cq"/><use transform="matrix(0.0078125,0,0,0.0078125,9.203125,0)" xlink:href="#bN"/><use transform="matrix(0.0078125,0,0,0.0078125,18.1015625,0)" xlink:href="#ck"/></g><path d="M613 0H400L7-1082h192c109 337 207 579 307 941 97-323 214-627 320-941h191" id="cr"/><g id="ax"><use transform="matrix(0.0078125,0,0,0.0078125,0,0)" xlink:href="#ca"/><use transform="matrix(0.0078125,0,0,0.0078125,8.8984375,0)" xlink:href="#bV"/><use transform="matrix(0.0078125,0,0,0.0078125,17.796875,0)" xlink:href="#cr"/><use transform="matrix(0.0078125,0,0,0.0078125,25.796875,0)" xlink:href="#bX"/></g><g id="ay"><use transform="matrix(0.0078125,0,0,0.0078125,0,0)" xlink:href="#cd"/><use transform="matrix(0.0078125,0,0,0.0078125,8,0)" xlink:href="#ck"/><use transform="matrix(0.0078125,0,0,0.0078125,16.8984375,0)" xlink:href="#bW"/><use transform="matrix(0.0078125,0,0,0.0078125,25.796875,0)" xlink:href="#bW"/><use transform="matrix(0.0078125,0,0,0.0078125,34.6953125,0)" xlink:href="#cg"/><use transform="matrix(0.0078125,0,0,0.0078125,38.25,0)" xlink:href="#bT"/><use transform="matrix(0.0078125,0,0,0.0078125,41.8046875,0)" xlink:href="#bX"/><use transform="matrix(0.0078125,0,0,0.0078125,50.703125,0)" xlink:href="#cd"/></g><path d="M266-966H125l-21-443h184" id="cs"/><g id="az"><use transform="matrix(0.0078125,0,0,0.0078125,0,0)" xlink:href="#cb"/><use transform="matrix(0.0078125,0,0,0.0078125,11.5546875,0)" xlink:href="#bX"/><use transform="matrix(0.0078125,0,0,0.0078125,20.453125,0)" xlink:href="#bZ"/><use transform="matrix(0.0078125,0,0,0.0078125,25.78125,0)" xlink:href="#bX"/><use transform="matrix(0.0078125,0,0,0.0078125,34.6796875,0)" xlink:href="#bO"/><use transform="matrix(0.0078125,0,0,0.0078125,43.578125,0)" xlink:href="#cs"/><use transform="matrix(0.0078125,0,0,0.0078125,46.6328125,0)" xlink:href="#bR"/></g><g id="aA"><use transform="matrix(0.0078125,0,0,0.0078125,0,0)" xlink:href="#bV"/><use transform="matrix(0.0078125,0,0,0.0078125,8.8984375,0)" xlink:href="#cj"/><use transform="matrix(0.0078125,0,0,0.0078125,17.796875,0)" xlink:href="#cg"/><use transform="matrix(0.0078125,0,0,0.0078125,21.3515625,0)" xlink:href="#bX"/></g><g id="aB"><use transform="matrix(0.0078125,0,0,0.0078125,0,0)" xlink:href="#ci"/><use transform="matrix(0.0078125,0,0,0.0078125,4.4453125,0)" xlink:href="#bN"/><use transform="matrix(0.0078125,0,0,0.0078125,13.34375,0)" xlink:href="#bZ"/><use transform="matrix(0.0078125,0,0,0.0078125,18.671875,0)" xlink:href="#bQ"/><use transform="matrix(0.0078125,0,0,0.0078125,27.5703125,0)" xlink:href="#bX"/><use transform="matrix(0.0078125,0,0,0.0078125,36.46875,0)" xlink:href="#bR"/></g><g id="aC"><use transform="matrix(0.0078125,0,0,0.0078125,0,0)" xlink:href="#bV"/><use transform="matrix(0.0078125,0,0,0.0078125,8.8984375,0)" xlink:href="#cj"/><use transform="matrix(0.0078125,0,0,0.0078125,17.796875,0)" xlink:href="#bN"/><use transform="matrix(0.0078125,0,0,0.0078125,26.6953125,0)" xlink:href="#ck"/><use transform="matrix(0.0078125,0,0,0.0078125,35.59375,0)" xlink:href="#bR"/></g><g id="aD"><use transform="matrix(0.0078125,0,0,0.0078125,0,0)" xlink:href="#bW"/><use transform="matrix(0.0078125,0,0,0.0078125,8.8984375,0)" xlink:href="#bZ"/><use transform="matrix(0.0078125,0,0,0.0078125,14.2265625,0)" xlink:href="#bT"/><use transform="matrix(0.0078125,0,0,0.0078125,17.78125,0)" xlink:href="#cd"/><use transform="matrix(0.0078125,0,0,0.0078125,25.78125,0)" xlink:href="#bN"/><use transform="matrix(0.0078125,0,0,0.0078125,34.6796875,0)" xlink:href="#bO"/><use transform="matrix(0.0078125,0,0,0.0078125,43.578125,0)" xlink:href="#bX"/><use transform="matrix(0.0078125,0,0,0.0078125,52.4765625,0)" xlink:href="#bZ"/></g><path d="M1106 0L543-680 359-540V0H168v-1409h191v706l679-706h225L663-797 1343 0h-237" id="ct"/><g id="aE"><use transform="matrix(0.0087890625,0,0,0.0087890625,0,0)" xlink:href="#ct"/><use transform="matrix(0.0087890625,0,0,0.0087890625,12.005859375,0)" xlink:href="#bX"/><use transform="matrix(0.0087890625,0,0,0.0087890625,22.0166015625,0)" xlink:href="#bX"/><use transform="matrix(0.0087890625,0,0,0.0087890625,32.02734375,0)" xlink:href="#bW"/></g><g id="aF"><use transform="matrix(0.0087890625,0,0,0.0087890625,0,0)" xlink:href="#ch"/><use transform="matrix(0.0087890625,0,0,0.0087890625,14.994140625,0)" xlink:href="#bN"/><use transform="matrix(0.0087890625,0,0,0.0087890625,25.0048828125,0)" xlink:href="#cr"/><use transform="matrix(0.0087890625,0,0,0.0087890625,34.0048828125,0)" xlink:href="#bT"/><use transform="matrix(0.0087890625,0,0,0.0087890625,38.00390625,0)" xlink:href="#bO"/><use transform="matrix(0.0087890625,0,0,0.0087890625,48.0146484375,0)" xlink:href="#bQ"/></g><g id="aG"><use transform="matrix(0.0087890625,0,0,0.0087890625,0,0)" xlink:href="#ci"/><use transform="matrix(0.0087890625,0,0,0.0087890625,5.0009765625,0)" xlink:href="#bN"/><use transform="matrix(0.0087890625,0,0,0.0087890625,15.01171875,0)" xlink:href="#bZ"/><use transform="matrix(0.0087890625,0,0,0.0087890625,21.005859375,0)" xlink:href="#cb"/><use transform="matrix(0.0087890625,0,0,0.0087890625,34.0048828125,0)" xlink:href="#bV"/><use transform="matrix(0.0087890625,0,0,0.0087890625,44.015625,0)" xlink:href="#bZ"/><use transform="matrix(0.0087890625,0,0,0.0087890625,50.009765625,0)" xlink:href="#bU"/></g><g id="aH"><use transform="matrix(0.0087890625,0,0,0.0087890625,0,0)" xlink:href="#bV"/><use transform="matrix(0.0087890625,0,0,0.0087890625,10.0107421875,0)" xlink:href="#bO"/><use transform="matrix(0.0087890625,0,0,0.0087890625,20.021484375,0)" xlink:href="#bU"/></g><g id="aI"><use transform="matrix(0.0087890625,0,0,0.0087890625,0,0)" xlink:href="#bR"/><use transform="matrix(0.0087890625,0,0,0.0087890625,5.0009765625,0)" xlink:href="#bZ"/><use transform="matrix(0.0087890625,0,0,0.0087890625,10.9951171875,0)" xlink:href="#bP"/></g><g id="aJ"><use transform="matrix(0.0087890625,0,0,0.0087890625,0,0)" xlink:href="#bR"/><use transform="matrix(0.0087890625,0,0,0.0087890625,5.0009765625,0)" xlink:href="#bN"/></g><g id="aK"><use transform="matrix(0.0087890625,0,0,0.0087890625,0,0)" xlink:href="#ci"/><use transform="matrix(0.0087890625,0,0,0.0087890625,5.0009765625,0)" xlink:href="#bN"/><use transform="matrix(0.0087890625,0,0,0.0087890625,15.01171875,0)" xlink:href="#bZ"/><use transform="matrix(0.0087890625,0,0,0.0087890625,21.005859375,0)" xlink:href="#bQ"/><use transform="matrix(0.0087890625,0,0,0.0087890625,31.0166015625,0)" xlink:href="#bX"/><use transform="matrix(0.0087890625,0,0,0.0087890625,41.02734375,0)" xlink:href="#bR"/></g><g id="aL"><use transform="matrix(0.0087890625,0,0,0.0087890625,0,0)" xlink:href="#bV"/><use transform="matrix(0.0087890625,0,0,0.0087890625,10.0107421875,0)" xlink:href="#cj"/><use transform="matrix(0.0087890625,0,0,0.0087890625,20.021484375,0)" xlink:href="#bN"/><use transform="matrix(0.0087890625,0,0,0.0087890625,30.0322265625,0)" xlink:href="#ck"/><use transform="matrix(0.0087890625,0,0,0.0087890625,40.04296875,0)" xlink:href="#bR"/></g><g id="aM"><use transform="matrix(0.0087890625,0,0,0.0087890625,0,0)" xlink:href="#ca"/><use transform="matrix(0.0087890625,0,0,0.0087890625,10.0107421875,0)" xlink:href="#bT"/><use transform="matrix(0.0087890625,0,0,0.0087890625,14.009765625,0)" xlink:href="#ch"/></g><g id="aN"><use transform="matrix(0.0078125,0,0,0.0078125,0,0)" xlink:href="#cj"/><use transform="matrix(0.0078125,0,0,0.0078125,8.8984375,0)" xlink:href="#bP"/></g><g id="aO"><use transform="matrix(0.0078125,0,0,0.0078125,0,0)" xlink:href="#bR"/><use transform="matrix(0.0078125,0,0,0.0078125,4.4453125,0)" xlink:href="#bX"/><use transform="matrix(0.0078125,0,0,0.0078125,13.34375,0)" xlink:href="#bZ"/><use transform="matrix(0.0078125,0,0,0.0078125,18.671875,0)" xlink:href="#bN"/><use transform="matrix(0.0078125,0,0,0.0078125,27.5703125,0)" xlink:href="#bZ"/><use transform="matrix(0.0078125,0,0,0.0078125,32.8984375,0)" xlink:href="#bT"/><use transform="matrix(0.0078125,0,0,0.0078125,36.453125,0)" xlink:href="#cd"/><use transform="matrix(0.0078125,0,0,0.0078125,44.453125,0)" xlink:href="#bR"/><use transform="matrix(0.0078125,0,0,0.0078125,48.8984375,0)" xlink:href="#cd"/></g><g id="aP"><use transform="matrix(0.0078125,0,0,0.0078125,0,0)" xlink:href="#bP"/><use transform="matrix(0.0078125,0,0,0.0078125,8,0)" xlink:href="#bN"/><use transform="matrix(0.0078125,0,0,0.0078125,16.8984375,0)" xlink:href="#ck"/></g><g id="aQ"><use transform="matrix(0.0078125,0,0,0.0078125,0,0)" xlink:href="#bQ"/><use transform="matrix(0.0078125,0,0,0.0078125,8.8984375,0)" xlink:href="#bN"/><use transform="matrix(0.0078125,0,0,0.0078125,17.796875,0)" xlink:href="#bR"/></g><g id="aR"><use transform="matrix(0.0078125,0,0,0.0078125,0,0)" xlink:href="#ce"/><use transform="matrix(0.0078125,0,0,0.0078125,8,0)" xlink:href="#bV"/><use transform="matrix(0.0078125,0,0,0.0078125,16.8984375,0)" xlink:href="#bW"/><use transform="matrix(0.0078125,0,0,0.0078125,25.796875,0)" xlink:href="#bR"/><use transform="matrix(0.0078125,0,0,0.0078125,30.2421875,0)" xlink:href="#bT"/><use transform="matrix(0.0078125,0,0,0.0078125,33.796875,0)" xlink:href="#cr"/><use transform="matrix(0.0078125,0,0,0.0078125,41.796875,0)" xlink:href="#bV"/><use transform="matrix(0.0078125,0,0,0.0078125,50.6953125,0)" xlink:href="#bR"/><use transform="matrix(0.0078125,0,0,0.0078125,55.140625,0)" xlink:href="#bX"/><use transform="matrix(0.0078125,0,0,0.0078125,64.0390625,0)" xlink:href="#bU"/></g><path d="M813 20c-458 0-705-273-710-731-5-449 256-722 701-719 323 2 501 105 605 332l-182 54c-76-154-207-229-428-230-335-2-502 220-502 563 0 339 185 576 516 576 185 0 358-63 451-156v-254H843v-160h597v486C1303-77 1082 20 813 20" id="cu"/><g id="aS"><use transform="matrix(0.0078125,0,0,0.0078125,0,0)" xlink:href="#cu"/><use transform="matrix(0.0078125,0,0,0.0078125,12.4453125,0)" xlink:href="#bX"/><use transform="matrix(0.0078125,0,0,0.0078125,21.34375,0)" xlink:href="#bR"/></g><g id="aT"><use transform="matrix(0.0078125,0,0,0.0078125,0,0)" xlink:href="#bR"/><use transform="matrix(0.0078125,0,0,0.0078125,4.4453125,0)" xlink:href="#bZ"/><use transform="matrix(0.0078125,0,0,0.0078125,9.7734375,0)" xlink:href="#bP"/></g><g id="aU"><use transform="matrix(0.0078125,0,0,0.0078125,0,0)" xlink:href="#cb"/><use transform="matrix(0.0078125,0,0,0.0078125,11.5546875,0)" xlink:href="#ca"/><use transform="matrix(0.0078125,0,0,0.0078125,20.453125,0)" xlink:href="#bN"/></g><g id="aV"><use transform="matrix(0.0078125,0,0,0.0078125,0,0)" xlink:href="#ca"/><use transform="matrix(0.0078125,0,0,0.0078125,8.8984375,0)" xlink:href="#bX"/><use transform="matrix(0.0078125,0,0,0.0078125,17.796875,0)" xlink:href="#cg"/><use transform="matrix(0.0078125,0,0,0.0078125,21.3515625,0)" xlink:href="#bW"/><use transform="matrix(0.0078125,0,0,0.0078125,30.25,0)" xlink:href="#bX"/><use transform="matrix(0.0078125,0,0,0.0078125,39.1484375,0)" xlink:href="#bU"/></g><g id="aW"><use transform="matrix(0.0078125,0,0,0.0078125,0,0)" xlink:href="#bP"/><use transform="matrix(0.0078125,0,0,0.0078125,8,0)" xlink:href="#bN"/><use transform="matrix(0.0078125,0,0,0.0078125,16.8984375,0)" xlink:href="#ck"/></g><path d="M692-1286c-195 0-347 51-347 223 0 101 58 144 134 179 135 62 487 105 623 191 97 62 170 147 170 304 0 130-50 231-152 302S875 20 690 20C347 20 148-99 93-338l185-37c46 178 190 245 419 246 213 0 386-61 386-250 0-223-244-222-431-271-182-48-288-69-390-156-64-54-103-133-103-247 0-121 47-214 139-279s224-98 396-98c318 0 471 80 545 324l-188 33c-44-155-158-213-359-213" id="cv"/><g id="aX"><use transform="matrix(0.0078125,0,0,0.0078125,0,0)" xlink:href="#cv"/><use transform="matrix(0.0078125,0,0,0.0078125,10.671875,0)" xlink:href="#bR"/><use transform="matrix(0.0078125,0,0,0.0078125,15.1171875,0)" xlink:href="#bV"/><use transform="matrix(0.0078125,0,0,0.0078125,24.015625,0)" xlink:href="#bP"/></g><g id="aY"><use transform="matrix(0.0078125,0,0,0.0078125,0,0)" xlink:href="#bW"/><use transform="matrix(0.0078125,0,0,0.0078125,8.8984375,0)" xlink:href="#ck"/><use transform="matrix(0.0078125,0,0,0.0078125,17.796875,0)" xlink:href="#bR"/></g><g id="aZ"><use transform="matrix(0.0078125,0,0,0.0078125,0,0)" xlink:href="#cb"/><use transform="matrix(0.0078125,0,0,0.0078125,11.5546875,0)" xlink:href="#bV"/><use transform="matrix(0.0078125,0,0,0.0078125,20.453125,0)" xlink:href="#bT"/><use transform="matrix(0.0078125,0,0,0.0078125,24.0078125,0)" xlink:href="#bR"/></g><g id="ba"><use transform="matrix(0.0078125,0,0,0.0078125,0,0)" xlink:href="#bR"/><use transform="matrix(0.0078125,0,0,0.0078125,4.4453125,0)" xlink:href="#bT"/><use transform="matrix(0.0078125,0,0,0.0078125,8,0)" xlink:href="#cg"/><use transform="matrix(0.0078125,0,0,0.0078125,11.5546875,0)" xlink:href="#cg"/></g><g id="bb"><use transform="matrix(0.0078125,0,0,0.0078125,0,0)" xlink:href="#cd"/><use transform="matrix(0.0078125,0,0,0.0078125,8,0)" xlink:href="#bN"/><use transform="matrix(0.0078125,0,0,0.0078125,16.8984375,0)" xlink:href="#ch"/><use transform="matrix(0.0078125,0,0,0.0078125,30.2265625,0)" xlink:href="#bX"/><use transform="matrix(0.0078125,0,0,0.0078125,39.125,0)" xlink:href="#bN"/><use transform="matrix(0.0078125,0,0,0.0078125,48.0234375,0)" xlink:href="#bO"/><use transform="matrix(0.0078125,0,0,0.0078125,56.921875,0)" xlink:href="#bX"/></g><g id="bc"><use transform="matrix(0.0078125,0,0,0.0078125,0,0)" xlink:href="#ci"/><use transform="matrix(0.0078125,0,0,0.0078125,4.4453125,0)" xlink:href="#bT"/><use transform="matrix(0.0078125,0,0,0.0078125,8,0)" xlink:href="#bO"/><use transform="matrix(0.0078125,0,0,0.0078125,16.8984375,0)" xlink:href="#bU"/><use transform="matrix(0.0078125,0,0,0.0078125,25.796875,0)" xlink:href="#cd"/></g><g id="bd"><use transform="matrix(0.0078125,0,0,0.0078125,0,0)" xlink:href="#ct"/><use transform="matrix(0.0078125,0,0,0.0078125,10.671875,0)" xlink:href="#bX"/><use transform="matrix(0.0078125,0,0,0.0078125,19.5703125,0)" xlink:href="#bX"/><use transform="matrix(0.0078125,0,0,0.0078125,28.46875,0)" xlink:href="#bW"/></g><g id="be"><use transform="matrix(0.0078125,0,0,0.0078125,0,0)" xlink:href="#ch"/><use transform="matrix(0.0078125,0,0,0.0078125,13.328125,0)" xlink:href="#bN"/><use transform="matrix(0.0078125,0,0,0.0078125,22.2265625,0)" xlink:href="#cr"/><use transform="matrix(0.0078125,0,0,0.0078125,30.2265625,0)" xlink:href="#bT"/><use transform="matrix(0.0078125,0,0,0.0078125,33.78125,0)" xlink:href="#bO"/><use transform="matrix(0.0078125,0,0,0.0078125,42.6796875,0)" xlink:href="#bQ"/></g><g id="bf"><use transform="matrix(0.0078125,0,0,0.0078125,0,0)" xlink:href="#bR"/><use transform="matrix(0.0078125,0,0,0.0078125,4.4453125,0)" xlink:href="#bT"/><use transform="matrix(0.0078125,0,0,0.0078125,8,0)" xlink:href="#cg"/><use transform="matrix(0.0078125,0,0,0.0078125,11.5546875,0)" xlink:href="#cg"/></g><g id="bg"><use transform="matrix(0.0078125,0,0,0.0078125,0,0)" xlink:href="#ci"/><use transform="matrix(0.0078125,0,0,0.0078125,4.4453125,0)" xlink:href="#bT"/><use transform="matrix(0.0078125,0,0,0.0078125,8,0)" xlink:href="#bO"/><use transform="matrix(0.0078125,0,0,0.0078125,16.8984375,0)" xlink:href="#bU"/></g><g id="bh"><use transform="matrix(0.0078125,0,0,0.0078125,0,0)" xlink:href="#ca"/><use transform="matrix(0.0078125,0,0,0.0078125,8.8984375,0)" xlink:href="#bX"/><use transform="matrix(0.0078125,0,0,0.0078125,17.796875,0)" xlink:href="#cg"/><use transform="matrix(0.0078125,0,0,0.0078125,21.3515625,0)" xlink:href="#bW"/></g><g id="bi"><use transform="matrix(0.0078125,0,0,0.0078125,0,0)" xlink:href="#bR"/><use transform="matrix(0.0078125,0,0,0.0078125,4.4453125,0)" xlink:href="#bX"/><use transform="matrix(0.0078125,0,0,0.0078125,13.34375,0)" xlink:href="#bZ"/><use transform="matrix(0.0078125,0,0,0.0078125,18.671875,0)" xlink:href="#bZ"/><use transform="matrix(0.0078125,0,0,0.0078125,24,0)" xlink:href="#bN"/><use transform="matrix(0.0078125,0,0,0.0078125,32.8984375,0)" xlink:href="#bZ"/><use transform="matrix(0.0078125,0,0,0.0078125,38.2265625,0)" xlink:href="#bT"/><use transform="matrix(0.0078125,0,0,0.0078125,41.78125,0)" xlink:href="#cd"/><use transform="matrix(0.0078125,0,0,0.0078125,49.78125,0)" xlink:href="#bR"/><use transform="matrix(0.0078125,0,0,0.0078125,54.2265625,0)" xlink:href="#cd"/></g><g id="bj"><use transform="matrix(0.0078125,0,0,0.0078125,0,0)" xlink:href="#ci"/><use transform="matrix(0.0078125,0,0,0.0078125,4.4453125,0)" xlink:href="#bN"/><use transform="matrix(0.0078125,0,0,0.0078125,13.34375,0)" xlink:href="#ck"/><use transform="matrix(0.0078125,0,0,0.0078125,22.2421875,0)" xlink:href="#bO"/><use transform="matrix(0.0078125,0,0,0.0078125,31.140625,0)" xlink:href="#bU"/></g><g id="bk"><use transform="matrix(0.0078125,0,0,0.0078125,0,0)" xlink:href="#ce"/><use transform="matrix(0.0078125,0,0,0.0078125,8,0)" xlink:href="#bV"/><use transform="matrix(0.0078125,0,0,0.0078125,16.8984375,0)" xlink:href="#bW"/><use transform="matrix(0.0078125,0,0,0.0078125,25.796875,0)" xlink:href="#bR"/><use transform="matrix(0.0078125,0,0,0.0078125,30.2421875,0)" xlink:href="#bT"/><use transform="matrix(0.0078125,0,0,0.0078125,33.796875,0)" xlink:href="#cr"/><use transform="matrix(0.0078125,0,0,0.0078125,41.796875,0)" xlink:href="#bV"/><use transform="matrix(0.0078125,0,0,0.0078125,50.6953125,0)" xlink:href="#bR"/><use transform="matrix(0.0078125,0,0,0.0078125,55.140625,0)" xlink:href="#bX"/><use transform="matrix(0.0078125,0,0,0.0078125,64.0390625,0)" xlink:href="#bU"/></g><g id="bl"><use transform="matrix(0.0078125,0,0,0.0078125,0,0)" xlink:href="#co"/><use transform="matrix(0.0078125,0,0,0.0078125,11.5546875,0)" xlink:href="#bX"/></g><g id="bm"><use transform="matrix(0.0078125,0,0,0.0078125,0,0)" xlink:href="#ci"/><use transform="matrix(0.0078125,0,0,0.0078125,4.4453125,0)" xlink:href="#bN"/><use transform="matrix(0.0078125,0,0,0.0078125,13.34375,0)" xlink:href="#ck"/><use transform="matrix(0.0078125,0,0,0.0078125,22.2421875,0)" xlink:href="#bO"/><use transform="matrix(0.0078125,0,0,0.0078125,31.140625,0)" xlink:href="#bU"/></g><g id="bn"><use transform="matrix(0.0078125,0,0,0.0078125,0,0)" xlink:href="#ca"/><use transform="matrix(0.0078125,0,0,0.0078125,8.8984375,0)" xlink:href="#bX"/><use transform="matrix(0.0078125,0,0,0.0078125,17.796875,0)" xlink:href="#cg"/><use transform="matrix(0.0078125,0,0,0.0078125,21.3515625,0)" xlink:href="#bW"/></g><g id="bo"><use transform="matrix(0.0078125,0,0,0.0078125,0,0)" xlink:href="#ci"/><use transform="matrix(0.0078125,0,0,0.0078125,4.4453125,0)" xlink:href="#bT"/><use transform="matrix(0.0078125,0,0,0.0078125,8,0)" xlink:href="#bO"/><use transform="matrix(0.0078125,0,0,0.0078125,16.8984375,0)" xlink:href="#bV"/><use transform="matrix(0.0078125,0,0,0.0078125,25.796875,0)" xlink:href="#cg"/><use transform="matrix(0.0078125,0,0,0.0078125,29.3515625,0)" xlink:href="#cg"/><use transform="matrix(0.0078125,0,0,0.0078125,32.90625,0)" xlink:href="#bP"/></g><g id="bp"><use transform="matrix(0.0078125,0,0,0.0078125,0,0)" xlink:href="#ca"/><use transform="matrix(0.0078125,0,0,0.0078125,8.8984375,0)" xlink:href="#bN"/><use transform="matrix(0.0078125,0,0,0.0078125,17.796875,0)" xlink:href="#ch"/><use transform="matrix(0.0078125,0,0,0.0078125,31.125,0)" xlink:href="#bX"/></g><g id="bq"><use transform="matrix(0.0078125,0,0,0.0078125,0,0)" xlink:href="#ch"/><use transform="matrix(0.0078125,0,0,0.0078125,13.328125,0)" xlink:href="#bT"/><use transform="matrix(0.0078125,0,0,0.0078125,16.8828125,0)" xlink:href="#cg"/><use transform="matrix(0.0078125,0,0,0.0078125,20.4375,0)" xlink:href="#bT"/><use transform="matrix(0.0078125,0,0,0.0078125,23.9921875,0)" xlink:href="#bR"/><use transform="matrix(0.0078125,0,0,0.0078125,28.4375,0)" xlink:href="#bV"/><use transform="matrix(0.0078125,0,0,0.0078125,37.3359375,0)" xlink:href="#bZ"/><use transform="matrix(0.0078125,0,0,0.0078125,42.6640625,0)" xlink:href="#bP"/></g><g id="br"><use transform="matrix(0.0078125,0,0,0.0078125,0,0)" xlink:href="#bT"/><use transform="matrix(0.0078125,0,0,0.0078125,3.5546875,0)" xlink:href="#bO"/><use transform="matrix(0.0078125,0,0,0.0078125,12.453125,0)" xlink:href="#bW"/><use transform="matrix(0.0078125,0,0,0.0078125,21.3515625,0)" xlink:href="#bZ"/><use transform="matrix(0.0078125,0,0,0.0078125,26.6796875,0)" xlink:href="#bT"/><use transform="matrix(0.0078125,0,0,0.0078125,30.234375,0)" xlink:href="#cd"/><use transform="matrix(0.0078125,0,0,0.0078125,38.234375,0)" xlink:href="#bN"/><use transform="matrix(0.0078125,0,0,0.0078125,47.1328125,0)" xlink:href="#bO"/><use transform="matrix(0.0078125,0,0,0.0078125,56.03125,0)" xlink:href="#bX"/><use transform="matrix(0.0078125,0,0,0.0078125,64.9296875,0)" xlink:href="#bU"/></g><g id="bs"><use transform="matrix(0.0078125,0,0,0.0078125,0,0)" xlink:href="#co"/><use transform="matrix(0.0078125,0,0,0.0078125,11.5546875,0)" xlink:href="#bX"/></g><g id="bt"><use transform="matrix(0.0078125,0,0,0.0078125,0,0)" xlink:href="#bO"/><use transform="matrix(0.0078125,0,0,0.0078125,8.8984375,0)" xlink:href="#bX"/><use transform="matrix(0.0078125,0,0,0.0078125,17.796875,0)" xlink:href="#cr"/><use transform="matrix(0.0078125,0,0,0.0078125,25.796875,0)" xlink:href="#bX"/><use transform="matrix(0.0078125,0,0,0.0078125,34.6953125,0)" xlink:href="#bZ"/></g><g id="bu"><use transform="matrix(0.0078125,0,0,0.0078125,0,0)" xlink:href="#ci"/><use transform="matrix(0.0078125,0,0,0.0078125,4.4453125,0)" xlink:href="#bN"/><use transform="matrix(0.0078125,0,0,0.0078125,13.34375,0)" xlink:href="#bZ"/><use transform="matrix(0.0078125,0,0,0.0078125,18.671875,0)" xlink:href="#bQ"/><use transform="matrix(0.0078125,0,0,0.0078125,27.5703125,0)" xlink:href="#bN"/><use transform="matrix(0.0078125,0,0,0.0078125,36.46875,0)" xlink:href="#bR"/></g><g id="bv"><use transform="matrix(0.0078125,0,0,0.0078125,0,0)" xlink:href="#ca"/><use transform="matrix(0.0078125,0,0,0.0078125,8.8984375,0)" xlink:href="#bT"/><use transform="matrix(0.0078125,0,0,0.0078125,12.453125,0)" xlink:href="#ch"/></g><g id="bw"><use transform="matrix(0.0078125,0,0,0.0078125,0,0)" xlink:href="#ca"/><use transform="matrix(0.0078125,0,0,0.0078125,8.8984375,0)" xlink:href="#bV"/><use transform="matrix(0.0078125,0,0,0.0078125,17.796875,0)" xlink:href="#bR"/><use transform="matrix(0.0078125,0,0,0.0078125,22.2421875,0)" xlink:href="#bX"/><use transform="matrix(0.0078125,0,0,0.0078125,31.140625,0)" xlink:href="#bU"/></g><g id="bx"><use transform="matrix(0.0078125,0,0,0.0078125,0,0)" xlink:href="#ca"/><use transform="matrix(0.0078125,0,0,0.0078125,8.8984375,0)" xlink:href="#bT"/><use transform="matrix(0.0078125,0,0,0.0078125,12.453125,0)" xlink:href="#ch"/></g><g id="by"><use transform="matrix(0.0078125,0,0,0.0078125,0,0)" xlink:href="#cd"/><use transform="matrix(0.0078125,0,0,0.0078125,8,0)" xlink:href="#bX"/><use transform="matrix(0.0078125,0,0,0.0078125,16.8984375,0)" xlink:href="#cg"/><use transform="matrix(0.0078125,0,0,0.0078125,20.453125,0)" xlink:href="#ci"/></g><g id="bz"><use transform="matrix(0.0078125,0,0,0.0078125,0,0)" xlink:href="#ci"/><use transform="matrix(0.0078125,0,0,0.0078125,4.4453125,0)" xlink:href="#bN"/><use transform="matrix(0.0078125,0,0,0.0078125,13.34375,0)" xlink:href="#bZ"/></g><g id="bA"><use transform="matrix(0.0078125,0,0,0.0078125,0,0)" xlink:href="#bO"/><use transform="matrix(0.0078125,0,0,0.0078125,8.8984375,0)" xlink:href="#bN"/><use transform="matrix(0.0078125,0,0,0.0078125,17.796875,0)" xlink:href="#bR"/></g><g id="bB"><use transform="matrix(0.0078125,0,0,0.0078125,0,0)" xlink:href="#ca"/><use transform="matrix(0.0078125,0,0,0.0078125,8.8984375,0)" xlink:href="#bX"/><use transform="matrix(0.0078125,0,0,0.0078125,17.796875,0)" xlink:href="#cg"/><use transform="matrix(0.0078125,0,0,0.0078125,21.3515625,0)" xlink:href="#bW"/><use transform="matrix(0.0078125,0,0,0.0078125,30.25,0)" xlink:href="#bT"/><use transform="matrix(0.0078125,0,0,0.0078125,33.8046875,0)" xlink:href="#bO"/><use transform="matrix(0.0078125,0,0,0.0078125,42.703125,0)" xlink:href="#bQ"/></g><g id="bC"><use transform="matrix(0.0078125,0,0,0.0078125,0,0)" xlink:href="#bV"/><use transform="matrix(0.0078125,0,0,0.0078125,8.8984375,0)" xlink:href="#cg"/><use transform="matrix(0.0078125,0,0,0.0078125,12.453125,0)" xlink:href="#cb"/><use transform="matrix(0.0078125,0,0,0.0078125,24.0078125,0)" xlink:href="#bV"/><use transform="matrix(0.0078125,0,0,0.0078125,32.90625,0)" xlink:href="#bP"/><use transform="matrix(0.0078125,0,0,0.0078125,40.90625,0)" xlink:href="#cd"/></g><g id="bD"><use transform="matrix(0.0078125,0,0,0.0078125,0,0)" xlink:href="#bR"/><use transform="matrix(0.0078125,0,0,0.0078125,4.4453125,0)" xlink:href="#ca"/><use transform="matrix(0.0078125,0,0,0.0078125,13.34375,0)" xlink:href="#bV"/><use transform="matrix(0.0078125,0,0,0.0078125,22.2421875,0)" xlink:href="#bO"/><use transform="matrix(0.0078125,0,0,0.0078125,31.140625,0)" xlink:href="#bS"/><use transform="matrix(0.0078125,0,0,0.0078125,39.140625,0)" xlink:href="#ci"/><use transform="matrix(0.0078125,0,0,0.0078125,43.5859375,0)" xlink:href="#ck"/><use transform="matrix(0.0078125,0,0,0.0078125,52.484375,0)" xlink:href="#cg"/></g><g id="bE"><use transform="matrix(0.0078125,0,0,0.0078125,0,0)" xlink:href="#ci"/><use transform="matrix(0.0078125,0,0,0.0078125,4.4453125,0)" xlink:href="#bN"/><use transform="matrix(0.0078125,0,0,0.0078125,13.34375,0)" xlink:href="#bZ"/></g><g id="bF"><use transform="matrix(0.0078125,0,0,0.0078125,0,0)" xlink:href="#cq"/><use transform="matrix(0.0078125,0,0,0.0078125,9.203125,0)" xlink:href="#bN"/><use transform="matrix(0.0078125,0,0,0.0078125,18.1015625,0)" xlink:href="#ck"/><use transform="matrix(0.0078125,0,0,0.0078125,27,0)" xlink:href="#bZ"/></g><g id="bG"><use transform="matrix(0.0078125,0,0,0.0078125,0,0)" xlink:href="#cd"/><use transform="matrix(0.0078125,0,0,0.0078125,8,0)" xlink:href="#ck"/><use transform="matrix(0.0078125,0,0,0.0078125,16.8984375,0)" xlink:href="#bW"/><use transform="matrix(0.0078125,0,0,0.0078125,25.796875,0)" xlink:href="#bW"/><use transform="matrix(0.0078125,0,0,0.0078125,34.6953125,0)" xlink:href="#cg"/><use transform="matrix(0.0078125,0,0,0.0078125,38.25,0)" xlink:href="#bT"/><use transform="matrix(0.0078125,0,0,0.0078125,41.8046875,0)" xlink:href="#bX"/><use transform="matrix(0.0078125,0,0,0.0078125,50.703125,0)" xlink:href="#cd"/></g><g id="bH"><use transform="matrix(0.0078125,0,0,0.0078125,0,0)" xlink:href="#bV"/><use transform="matrix(0.0078125,0,0,0.0078125,8.8984375,0)" xlink:href="#bZ"/><use transform="matrix(0.0078125,0,0,0.0078125,14.2265625,0)" xlink:href="#bX"/></g><g id="bI"><use transform="matrix(0.0078125,0,0,0.0078125,0,0)" xlink:href="#cj"/><use transform="matrix(0.0078125,0,0,0.0078125,8.8984375,0)" xlink:href="#bT"/><use transform="matrix(0.0078125,0,0,0.0078125,12.453125,0)" xlink:href="#bR"/></g><g id="bJ"><use transform="matrix(0.0078125,0,0,0.0078125,0,0)" xlink:href="#cg"/><use transform="matrix(0.0078125,0,0,0.0078125,3.5546875,0)" xlink:href="#bX"/><use transform="matrix(0.0078125,0,0,0.0078125,12.453125,0)" xlink:href="#cd"/><use transform="matrix(0.0078125,0,0,0.0078125,20.453125,0)" xlink:href="#cd"/></g><g id="bK"><use transform="matrix(0.0078125,0,0,0.0078125,0,0)" xlink:href="#cb"/><use transform="matrix(0.0078125,0,0,0.0078125,11.5546875,0)" xlink:href="#bX"/><use transform="matrix(0.0078125,0,0,0.0078125,20.453125,0)" xlink:href="#bZ"/><use transform="matrix(0.0078125,0,0,0.0078125,25.78125,0)" xlink:href="#bX"/></g><g id="bL"><use transform="matrix(0.0078125,0,0,0.0078125,0,0)" xlink:href="#bX"/><use transform="matrix(0.0078125,0,0,0.0078125,8.8984375,0)" xlink:href="#cd"/><use transform="matrix(0.0078125,0,0,0.0078125,16.8984375,0)" xlink:href="#ce"/><use transform="matrix(0.0078125,0,0,0.0078125,24.8984375,0)" xlink:href="#bV"/><use transform="matrix(0.0078125,0,0,0.0078125,33.796875,0)" xlink:href="#bW"/><use transform="matrix(0.0078125,0,0,0.0078125,42.6953125,0)" xlink:href="#bX"/></g></defs></g></svg>